<svg xmlns="http://www.w3.org/2000/svg" xmlns:xlink="http://www.w3.org/1999/xlink" width="500" zoomAndPan="magnify" viewBox="0 0 375 374.999991" height="500" preserveAspectRatio="xMidYMid meet" version="1.0"><defs><clipPath id="db2e56aa46"><path d="M 105 105 L 269.933594 105 L 269.933594 269.933594 L 105 269.933594 Z M 105 105 " clip-rule="nonzero"/></clipPath><clipPath id="167de79694"><path d="M 187.5 269.820312 C 199.359375 265.832031 210.863281 260.996094 222.007812 255.308594 C 229.421875 251.535156 236.496094 247.507812 243.226562 243.226562 C 247.488281 236.507812 251.511719 229.433594 255.304688 222.003906 C 260.992188 210.859375 265.828125 199.359375 269.820312 187.5 C 265.828125 175.640625 260.992188 164.140625 255.304688 152.996094 C 251.53125 145.570312 247.507812 138.496094 243.226562 131.773438 C 236.507812 127.511719 229.433594 123.484375 222.007812 119.691406 C 210.859375 114.007812 199.359375 109.171875 187.5 105.179688 C 175.640625 109.171875 164.140625 114.007812 152.996094 119.691406 C 145.574219 123.464844 138.5 127.492188 131.777344 131.773438 C 127.515625 138.496094 123.488281 145.570312 119.695312 152.996094 C 114.007812 164.140625 109.171875 175.640625 105.179688 187.5 C 109.171875 199.359375 114.007812 210.859375 119.695312 222.003906 C 123.46875 229.417969 127.496094 236.492188 131.777344 243.226562 C 138.5 247.484375 145.574219 251.511719 152.996094 255.308594 C 164.140625 260.996094 175.640625 265.832031 187.5 269.820312 M 187.5 200.984375 C 185.710938 200.980469 183.992188 200.636719 182.339844 199.953125 C 180.691406 199.265625 179.234375 198.289062 177.96875 197.027344 C 176.707031 195.761719 175.734375 194.300781 175.050781 192.648438 C 174.367188 190.996094 174.027344 189.277344 174.027344 187.488281 C 174.03125 185.699219 174.375 183.980469 175.058594 182.328125 C 175.742188 180.679688 176.71875 179.222656 177.984375 177.957031 C 179.25 176.695312 180.707031 175.71875 182.359375 175.035156 C 184.011719 174.351562 185.730469 174.011719 187.519531 174.011719 C 189.308594 174.011719 191.027344 174.355469 192.679688 175.039062 C 194.332031 175.726562 195.789062 176.699219 197.050781 177.964844 C 198.316406 179.226562 199.289062 180.6875 199.972656 182.339844 C 200.660156 183.992188 201 185.710938 201 187.5 C 201.003906 189.289062 200.660156 191.011719 199.976562 192.667969 C 199.292969 194.320312 198.316406 195.78125 197.050781 197.046875 C 195.785156 198.316406 194.324219 199.289062 192.667969 199.976562 C 191.015625 200.660156 189.289062 201 187.5 201 Z M 187.5 200.984375 " clip-rule="evenodd"/></clipPath></defs><path fill="#221ee4" d="M 62.277344 217.957031 C 67.816406 193.085938 77.152344 166.871094 90.375 140.902344 C 91.71875 138.273438 93.082031 135.671875 94.476562 133.101562 C 93.179688 134.070312 91.894531 135.035156 90.609375 136.003906 C 90.3125 136.585938 90.007812 137.15625 89.710938 137.742188 C 76.265625 164.160156 66.5625 190.839844 60.5625 216.257812 C 61.132812 216.824219 61.703125 217.390625 62.277344 217.957031 M 175.207031 346.847656 C 146.59375 363.640625 118.339844 368.167969 95.832031 356.714844 C 61.890625 339.457031 49.632812 290.25 59.613281 231.519531 C 58.96875 230.925781 58.335938 230.332031 57.707031 229.742188 C 45.550781 294.566406 58.375 349.316406 95.535156 368.226562 C 121.011719 381.191406 153.375 374.980469 185.789062 354.335938 C 182.195312 351.972656 178.667969 349.476562 175.207031 346.847656 Z M 214.363281 316.300781 C 206.472656 324.089844 198.042969 331.25 189.082031 337.777344 C 192.53125 340.199219 196.050781 342.480469 199.644531 344.625 C 209.703125 336.878906 219.113281 328.410156 227.882812 319.226562 C 223.359375 318.371094 218.851562 317.398438 214.363281 316.316406 Z M 244.308594 281.597656 C 239.15625 288.59375 233.851562 295.203125 228.394531 301.433594 C 232.890625 302.257812 237.398438 302.964844 241.917969 303.546875 C 251.34375 292.210938 259.992188 280.3125 267.871094 267.855469 C 260.328125 272.644531 252.476562 277.230469 244.308594 281.613281 Z M 273.511719 234.070312 C 265.824219 249.21875 257.058594 263.722656 247.214844 277.570312 C 255.476562 272.917969 263.378906 268.039062 270.929688 262.929688 C 275.953125 254.707031 280.742188 246.140625 285.292969 237.234375 C 336.085938 137.417969 333.472656 34.226562 279.464844 6.746094 C 232.277344 -17.242188 161.453125 24.492188 110.453125 101.992188 C 112.171875 100.941406 113.898438 99.902344 115.625 98.882812 C 162.84375 31.835938 225.640625 -3.3125 268.058594 18.269531 C 318.632812 44.003906 321.089844 140.632812 273.511719 234.097656 Z M 273.511719 234.070312 " fill-opacity="1" fill-rule="evenodd"/><path fill="#075ff6" d="M 304.355469 133.746094 C 285.125 117.585938 262.503906 102.546875 237.261719 89.710938 C 228.554688 85.28125 219.847656 81.261719 211.140625 77.648438 C 210.121094 77.90625 209.097656 78.164062 208.082031 78.433594 C 216.742188 81.984375 225.421875 85.96875 234.109375 90.375 C 260.832031 103.976562 284.398438 120.1875 303.832031 137.597656 C 304.019531 136.3125 304.199219 135.03125 304.367188 133.746094 M 150.8125 60.953125 C 160.792969 62.949219 170.644531 65.453125 180.367188 68.464844 C 181.367188 68.109375 182.367188 67.761719 183.367188 67.414062 C 172.96875 64.078125 162.6875 61.335938 152.636719 59.179688 C 152.019531 59.789062 151.414062 60.375 150.8125 60.953125 Z M 74.285156 59.136719 C 93.566406 55.304688 116.191406 55.292969 140.542969 59.136719 C 141.140625 58.484375 141.746094 57.835938 142.359375 57.1875 C 118.300781 52.933594 95.695312 52.152344 75.878906 54.804688 C 75.320312 56.21875 74.789062 57.664062 74.285156 59.136719 Z M 88.480469 240.621094 C 28.269531 194.433594 -2.175781 135.992188 18.273438 95.828125 C 25.757812 81.121094 39.238281 70.484375 56.898438 63.96875 C 57.320312 62.03125 57.777344 60.136719 58.277344 58.273438 C 34.378906 64.644531 16.15625 77.085938 6.777344 95.53125 C -17.230469 142.707031 24.472656 213.488281 101.929688 264.492188 C 97.15625 256.699219 92.671875 248.738281 88.480469 240.613281 Z M 140.902344 273.519531 C 133.941406 269.976562 127.199219 266.265625 120.667969 262.378906 C 125.507812 269.949219 130.652344 277.308594 136.105469 284.460938 L 137.738281 285.296875 C 237.554688 336.09375 340.746094 333.480469 368.226562 279.476562 C 386.976562 242.632812 365.640625 191.386719 318.5 146.410156 C 318.21875 147.898438 317.921875 149.382812 317.617188 150.863281 C 356.503906 191.113281 373.265625 235.570312 356.730469 268.054688 C 330.996094 318.628906 234.378906 321.089844 140.902344 273.515625 Z M 140.902344 273.519531 " fill-opacity="1" fill-rule="evenodd"/><path fill="#a89999" d="M 179.402344 24.308594 C 153.179688 10.71875 127.636719 7.742188 106.941406 18.269531 C 75.300781 34.371094 62.5 78.234375 69.003906 131.699219 C 64.957031 135.101562 61.007812 138.597656 57.15625 142.1875 C 45.96875 78.695312 58.96875 25.359375 95.535156 6.769531 C 120.859375 -6.113281 152.988281 -0.0546875 185.207031 20.296875 C 183.25 21.59375 181.316406 22.933594 179.402344 24.308594 M 223.078125 56.363281 C 212.21875 45.992188 201.0625 37.242188 189.925781 30.316406 C 191.746094 29.242188 193.578125 28.207031 195.421875 27.210938 C 206.304688 35.101562 217.117188 44.574219 227.597656 55.449219 C 226.089844 55.742188 224.582031 56.046875 223.078125 56.363281 Z M 297.050781 168.109375 C 293.378906 159.054688 289.234375 149.984375 284.625 140.898438 C 271.28125 114.679688 255.421875 91.484375 238.371094 72.261719 C 239.636719 72.082031 240.910156 71.898438 242.171875 71.75 C 257.984375 90.753906 272.683594 112.976562 285.285156 137.738281 C 289.914062 146.835938 294.097656 155.945312 297.839844 165.0625 C 297.582031 166.082031 297.320312 167.101562 297.050781 168.117188 Z M 314.613281 227.1875 C 312.453125 215.738281 309.621094 204.457031 306.117188 193.34375 C 306.480469 192.34375 306.820312 191.34375 307.164062 190.347656 C 310.914062 201.839844 314.003906 213.507812 316.433594 225.351562 C 315.832031 225.96875 315.222656 226.585938 314.613281 227.195312 Z M 315.867188 300.703125 C 319.859375 280.652344 319.710938 256.980469 315.386719 231.523438 C 316.027344 230.929688 316.65625 230.335938 317.289062 229.742188 C 322.003906 254.878906 322.957031 278.503906 320.191406 299.105469 C 318.777344 299.671875 317.335938 300.203125 315.867188 300.710938 Z M 101.488281 234.097656 C 149.050781 327.558594 228.597656 382.464844 279.171875 356.730469 C 293.875 349.242188 304.507812 335.761719 311.027344 318.109375 C 312.960938 317.6875 314.863281 317.226562 316.726562 316.730469 C 310.355469 340.621094 297.910156 358.839844 279.464844 368.226562 C 225.460938 395.710938 140.507812 337.074219 89.714844 237.25 C 76.789062 211.855469 67.324219 186.226562 61.285156 161.6875 C 64.800781 158.125 68.425781 154.65625 72.167969 151.28125 C 77.5 177.851562 87.25 206.113281 101.488281 234.097656 Z M 101.488281 234.097656 " fill-opacity="1" fill-rule="evenodd"/><path fill="#221ee4" d="M 350.433594 179.894531 C 364.246094 153.5 367.324219 127.765625 356.730469 106.9375 C 349.753906 93.242188 337.582031 83.085938 321.683594 76.488281 C 320.925781 70.492188 319.792969 64.566406 318.285156 58.710938 C 341.414062 65.199219 359.050781 77.5 368.226562 95.539062 C 381.179688 120.996094 375 153.316406 354.40625 185.699219 C 353.117188 183.746094 351.785156 181.8125 350.414062 179.894531 M 207.566406 296.78125 C 216.402344 293.175781 225.246094 289.128906 234.101562 284.632812 C 284.476562 258.992188 323.632812 224.0625 345.035156 189.386719 C 346.117188 191.21875 347.160156 193.070312 348.15625 194.941406 C 324.234375 228.140625 285.578125 260.71875 237.28125 285.285156 C 228.394531 289.804688 219.507812 293.898438 210.621094 297.5625 C 209.601562 297.304688 208.585938 297.042969 207.566406 296.78125 Z M 157.042969 312.746094 C 164.890625 310.996094 172.871094 308.875 180.9375 306.363281 C 181.9375 306.71875 182.933594 307.066406 183.933594 307.410156 C 175.429688 310.15625 167.03125 312.5 158.734375 314.449219 C 158.167969 313.875 157.601562 313.296875 157.042969 312.722656 Z M 63.386719 313.183594 C 84.910156 319.582031 111.71875 320.480469 141.003906 315.796875 C 141.601562 316.441406 142.195312 317.085938 142.796875 317.730469 C 114.117188 322.847656 87.496094 323.042969 65.175781 318.363281 C 64.539062 316.652344 63.941406 314.925781 63.386719 313.183594 Z M 29.164062 198.054688 C 11.527344 227.261719 6.585938 256.203125 18.28125 279.171875 C 25.597656 293.550781 38.652344 304.039062 55.734375 310.589844 C 56.148438 312.539062 56.609375 314.472656 57.113281 316.394531 C 33.785156 309.945312 16.003906 297.609375 6.777344 279.46875 C -6.417969 253.542969 0.242188 220.484375 21.769531 187.5 C 24.066406 191.027344 26.53125 194.542969 29.164062 198.054688 Z M 140.910156 101.484375 C 94.996094 124.847656 58.414062 155.925781 36.085938 187.5 C 33.601562 183.980469 31.296875 180.457031 29.164062 176.933594 C 53.226562 144.824219 90.960938 113.511719 137.738281 89.710938 C 194.84375 60.652344 253.050781 49.074219 297.554688 54.601562 C 299.644531 59.8125 301.3125 65.152344 302.558594 70.625 C 259.699219 61.453125 199.679688 71.578125 140.902344 101.484375 Z M 140.910156 101.484375 " fill-opacity="1" fill-rule="evenodd"/><path fill="#075ff6" d="M 187.5 269.820312 C 199.359375 265.832031 210.863281 260.996094 222.007812 255.308594 C 229.421875 251.535156 236.496094 247.507812 243.226562 243.226562 C 247.488281 236.507812 251.511719 229.433594 255.304688 222.003906 C 260.992188 210.859375 265.828125 199.359375 269.820312 187.5 C 265.828125 175.640625 260.992188 164.140625 255.304688 152.996094 C 251.53125 145.570312 247.507812 138.496094 243.226562 131.773438 C 236.507812 127.511719 229.433594 123.484375 222.007812 119.691406 C 210.859375 114.007812 199.359375 109.171875 187.5 105.179688 C 175.640625 109.171875 164.140625 114.007812 152.996094 119.691406 C 145.574219 123.464844 138.5 127.492188 131.777344 131.773438 C 127.515625 138.496094 123.488281 145.570312 119.695312 152.996094 C 114.007812 164.140625 109.171875 175.640625 105.179688 187.5 C 109.171875 199.359375 114.007812 210.859375 119.695312 222.003906 C 123.46875 229.417969 127.496094 236.492188 131.777344 243.226562 C 138.5 247.484375 145.574219 251.511719 152.996094 255.308594 C 164.140625 260.996094 175.640625 265.832031 187.5 269.820312 M 187.5 200.984375 C 186.613281 200.984375 185.738281 200.894531 184.871094 200.722656 C 184 200.546875 183.160156 200.292969 182.339844 199.953125 C 181.523438 199.613281 180.746094 199.195312 180.011719 198.703125 C 179.277344 198.210938 178.59375 197.652344 177.96875 197.027344 C 177.34375 196.398438 176.785156 195.71875 176.296875 194.980469 C 175.804688 194.246094 175.390625 193.46875 175.050781 192.648438 C 174.714844 191.832031 174.457031 190.988281 174.285156 190.117188 C 174.113281 189.25 174.027344 188.375 174.027344 187.488281 C 174.03125 186.601562 174.117188 185.726562 174.289062 184.859375 C 174.464844 183.988281 174.71875 183.148438 175.058594 182.328125 C 175.398438 181.511719 175.8125 180.734375 176.304688 180 C 176.796875 179.261719 177.359375 178.582031 177.984375 177.957031 C 178.609375 177.332031 179.292969 176.773438 180.027344 176.28125 C 180.765625 175.789062 181.542969 175.375 182.359375 175.035156 C 183.175781 174.699219 184.019531 174.441406 184.890625 174.269531 C 185.757812 174.097656 186.632812 174.011719 187.519531 174.011719 C 188.40625 174.011719 189.28125 174.097656 190.148438 174.273438 C 191.019531 174.445312 191.859375 174.703125 192.679688 175.039062 C 193.496094 175.378906 194.273438 175.792969 195.007812 176.285156 C 195.746094 176.777344 196.425781 177.339844 197.050781 177.964844 C 197.679688 178.589844 198.238281 179.269531 198.730469 180.007812 C 199.21875 180.742188 199.636719 181.519531 199.972656 182.339844 C 200.3125 183.15625 200.570312 184 200.742188 184.867188 C 200.914062 185.734375 201 186.613281 201 187.5 C 201 188.386719 200.914062 189.261719 200.742188 190.132812 C 200.570312 191.003906 200.316406 191.847656 199.976562 192.667969 C 199.636719 193.484375 199.222656 194.265625 198.730469 195.003906 C 198.238281 195.738281 197.675781 196.421875 197.050781 197.046875 C 196.421875 197.675781 195.742188 198.234375 195.003906 198.726562 C 194.265625 199.21875 193.488281 199.636719 192.667969 199.976562 C 191.847656 200.3125 191.003906 200.570312 190.136719 200.742188 C 189.265625 200.914062 188.386719 201 187.5 201 Z M 187.5 200.984375 " fill-opacity="1" fill-rule="evenodd"/><g clip-path="url(#db2e56aa46)"><g clip-path="url(#167de79694)"><path fill="#075ff6" d="M 105.175781 105.175781 L 269.824219 105.175781 L 269.824219 269.820312 L 105.175781 269.820312 Z M 105.175781 105.175781 " fill-opacity="1" fill-rule="nonzero"/></g></g></svg>