<svg xmlns="http://www.w3.org/2000/svg" xmlns:xlink="http://www.w3.org/1999/xlink" width="2048" zoomAndPan="magnify" viewBox="0 0 1536 863.999991" height="1152" preserveAspectRatio="xMidYMid meet" version="1.0"><defs><linearGradient x1="0" gradientTransform="matrix(0.75, 0, 0, 0.75, 0.00000773333, 0.00002)" y1="576" x2="2047.999915" gradientUnits="userSpaceOnUse" y2="576" id="2d219f25a3"><stop stop-opacity="1" stop-color="rgb(0%, 0%, 0%)" offset="0"/><stop stop-opacity="1" stop-color="rgb(0.0808716%, 0.0778198%, 0.312805%)" offset="0.00390625"/><stop stop-opacity="1" stop-color="rgb(0.161743%, 0.15564%, 0.627136%)" offset="0.0078125"/><stop stop-opacity="1" stop-color="rgb(0.242615%, 0.233459%, 0.941467%)" offset="0.0117188"/><stop stop-opacity="1" stop-color="rgb(0.323486%, 0.311279%, 1.255798%)" offset="0.015625"/><stop stop-opacity="1" stop-color="rgb(0.404358%, 0.389099%, 1.568604%)" offset="0.0195312"/><stop stop-opacity="1" stop-color="rgb(0.486755%, 0.468445%, 1.882935%)" offset="0.0234375"/><stop stop-opacity="1" stop-color="rgb(0.567627%, 0.546265%, 2.197266%)" offset="0.0273438"/><stop stop-opacity="1" stop-color="rgb(0.648499%, 0.624084%, 2.511597%)" offset="0.03125"/><stop stop-opacity="1" stop-color="rgb(0.72937%, 0.701904%, 2.825928%)" offset="0.0351562"/><stop stop-opacity="1" stop-color="rgb(0.811768%, 0.779724%, 3.140259%)" offset="0.0390625"/><stop stop-opacity="1" stop-color="rgb(0.892639%, 0.857544%, 3.453064%)" offset="0.0429688"/><stop stop-opacity="1" stop-color="rgb(0.973511%, 0.93689%, 3.767395%)" offset="0.046875"/><stop stop-opacity="1" stop-color="rgb(1.054382%, 1.014709%, 4.081726%)" offset="0.0507812"/><stop stop-opacity="1" stop-color="rgb(1.13678%, 1.092529%, 4.396057%)" offset="0.0546875"/><stop stop-opacity="1" stop-color="rgb(1.217651%, 1.170349%, 4.710388%)" offset="0.0585938"/><stop stop-opacity="1" stop-color="rgb(1.298523%, 1.249695%, 5.024719%)" offset="0.0625"/><stop stop-opacity="1" stop-color="rgb(1.379395%, 1.327515%, 5.337524%)" offset="0.0664062"/><stop stop-opacity="1" stop-color="rgb(1.461792%, 1.405334%, 5.651855%)" offset="0.0703125"/><stop stop-opacity="1" stop-color="rgb(1.542664%, 1.483154%, 5.966187%)" offset="0.0742188"/><stop stop-opacity="1" stop-color="rgb(1.623535%, 1.560974%, 6.280518%)" offset="0.078125"/><stop stop-opacity="1" stop-color="rgb(1.704407%, 1.638794%, 6.594849%)" offset="0.0820312"/><stop stop-opacity="1" stop-color="rgb(1.786804%, 1.71814%, 6.90918%)" offset="0.0859375"/><stop stop-opacity="1" stop-color="rgb(1.867676%, 1.795959%, 7.221985%)" offset="0.0898438"/><stop stop-opacity="1" stop-color="rgb(1.948547%, 1.873779%, 7.536316%)" offset="0.09375"/><stop stop-opacity="1" stop-color="rgb(2.029419%, 1.951599%, 7.850647%)" offset="0.0976562"/><stop stop-opacity="1" stop-color="rgb(2.111816%, 2.030945%, 8.164978%)" offset="0.101562"/><stop stop-opacity="1" stop-color="rgb(2.192688%, 2.108765%, 8.479309%)" offset="0.105469"/><stop stop-opacity="1" stop-color="rgb(2.27356%, 2.186584%, 8.79364%)" offset="0.109375"/><stop stop-opacity="1" stop-color="rgb(2.354431%, 2.264404%, 9.106445%)" offset="0.113281"/><stop stop-opacity="1" stop-color="rgb(2.436829%, 2.342224%, 9.420776%)" offset="0.117188"/><stop stop-opacity="1" stop-color="rgb(2.5177%, 2.420044%, 9.735107%)" offset="0.121094"/><stop stop-opacity="1" stop-color="rgb(2.598572%, 2.49939%, 10.049438%)" offset="0.125"/><stop stop-opacity="1" stop-color="rgb(2.679443%, 2.577209%, 10.36377%)" offset="0.128906"/><stop stop-opacity="1" stop-color="rgb(2.761841%, 2.655029%, 10.678101%)" offset="0.132812"/><stop stop-opacity="1" stop-color="rgb(2.842712%, 2.732849%, 10.990906%)" offset="0.136719"/><stop stop-opacity="1" stop-color="rgb(2.923584%, 2.812195%, 11.305237%)" offset="0.140625"/><stop stop-opacity="1" stop-color="rgb(3.004456%, 2.890015%, 11.619568%)" offset="0.144531"/><stop stop-opacity="1" stop-color="rgb(3.086853%, 2.967834%, 11.933899%)" offset="0.148438"/><stop stop-opacity="1" stop-color="rgb(3.167725%, 3.045654%, 12.246704%)" offset="0.152344"/><stop stop-opacity="1" stop-color="rgb(3.248596%, 3.123474%, 12.561035%)" offset="0.15625"/><stop stop-opacity="1" stop-color="rgb(3.329468%, 3.201294%, 12.875366%)" offset="0.160156"/><stop stop-opacity="1" stop-color="rgb(3.411865%, 3.28064%, 13.189697%)" offset="0.164062"/><stop stop-opacity="1" stop-color="rgb(3.492737%, 3.358459%, 13.504028%)" offset="0.167969"/><stop stop-opacity="1" stop-color="rgb(3.573608%, 3.436279%, 13.818359%)" offset="0.171875"/><stop stop-opacity="1" stop-color="rgb(3.65448%, 3.514099%, 14.131165%)" offset="0.175781"/><stop stop-opacity="1" stop-color="rgb(3.736877%, 3.593445%, 14.445496%)" offset="0.179688"/><stop stop-opacity="1" stop-color="rgb(3.817749%, 3.671265%, 14.759827%)" offset="0.183594"/><stop stop-opacity="1" stop-color="rgb(3.898621%, 3.749084%, 15.074158%)" offset="0.1875"/><stop stop-opacity="1" stop-color="rgb(3.979492%, 3.826904%, 15.388489%)" offset="0.191406"/><stop stop-opacity="1" stop-color="rgb(4.06189%, 3.904724%, 15.70282%)" offset="0.195312"/><stop stop-opacity="1" stop-color="rgb(4.142761%, 3.982544%, 16.015625%)" offset="0.199219"/><stop stop-opacity="1" stop-color="rgb(4.223633%, 4.06189%, 16.329956%)" offset="0.203125"/><stop stop-opacity="1" stop-color="rgb(4.304504%, 4.139709%, 16.644287%)" offset="0.207031"/><stop stop-opacity="1" stop-color="rgb(4.386902%, 4.217529%, 16.958618%)" offset="0.210938"/><stop stop-opacity="1" stop-color="rgb(4.467773%, 4.295349%, 17.272949%)" offset="0.214844"/><stop stop-opacity="1" stop-color="rgb(4.548645%, 4.374695%, 17.58728%)" offset="0.21875"/><stop stop-opacity="1" stop-color="rgb(4.629517%, 4.452515%, 17.900085%)" offset="0.222656"/><stop stop-opacity="1" stop-color="rgb(4.711914%, 4.530334%, 18.214417%)" offset="0.226562"/><stop stop-opacity="1" stop-color="rgb(4.792786%, 4.608154%, 18.528748%)" offset="0.230469"/><stop stop-opacity="1" stop-color="rgb(4.873657%, 4.685974%, 18.843079%)" offset="0.234375"/><stop stop-opacity="1" stop-color="rgb(4.954529%, 4.763794%, 19.15741%)" offset="0.238281"/><stop stop-opacity="1" stop-color="rgb(5.036926%, 4.84314%, 19.471741%)" offset="0.242188"/><stop stop-opacity="1" stop-color="rgb(5.117798%, 4.920959%, 19.784546%)" offset="0.246094"/><stop stop-opacity="1" stop-color="rgb(5.198669%, 4.998779%, 20.098877%)" offset="0.25"/><stop stop-opacity="1" stop-color="rgb(5.279541%, 5.076599%, 20.413208%)" offset="0.253906"/><stop stop-opacity="1" stop-color="rgb(5.361938%, 5.155945%, 20.727539%)" offset="0.257812"/><stop stop-opacity="1" stop-color="rgb(5.44281%, 5.233765%, 21.04187%)" offset="0.261719"/><stop stop-opacity="1" stop-color="rgb(5.523682%, 5.311584%, 21.356201%)" offset="0.265625"/><stop stop-opacity="1" stop-color="rgb(5.604553%, 5.389404%, 21.669006%)" offset="0.269531"/><stop stop-opacity="1" stop-color="rgb(5.686951%, 5.467224%, 21.983337%)" offset="0.273438"/><stop stop-opacity="1" stop-color="rgb(5.767822%, 5.545044%, 22.297668%)" offset="0.277344"/><stop stop-opacity="1" stop-color="rgb(5.848694%, 5.62439%, 22.612%)" offset="0.28125"/><stop stop-opacity="1" stop-color="rgb(5.929565%, 5.702209%, 22.924805%)" offset="0.285156"/><stop stop-opacity="1" stop-color="rgb(6.011963%, 5.780029%, 23.239136%)" offset="0.289062"/><stop stop-opacity="1" stop-color="rgb(6.092834%, 5.857849%, 23.553467%)" offset="0.292969"/><stop stop-opacity="1" stop-color="rgb(6.173706%, 5.937195%, 23.867798%)" offset="0.296875"/><stop stop-opacity="1" stop-color="rgb(6.254578%, 6.015015%, 24.182129%)" offset="0.300781"/><stop stop-opacity="1" stop-color="rgb(6.336975%, 6.092834%, 24.49646%)" offset="0.304688"/><stop stop-opacity="1" stop-color="rgb(6.417847%, 6.170654%, 24.809265%)" offset="0.308594"/><stop stop-opacity="1" stop-color="rgb(6.498718%, 6.248474%, 25.123596%)" offset="0.3125"/><stop stop-opacity="1" stop-color="rgb(6.57959%, 6.326294%, 25.437927%)" offset="0.316406"/><stop stop-opacity="1" stop-color="rgb(6.661987%, 6.40564%, 25.752258%)" offset="0.320312"/><stop stop-opacity="1" stop-color="rgb(6.742859%, 6.483459%, 26.066589%)" offset="0.324219"/><stop stop-opacity="1" stop-color="rgb(6.82373%, 6.561279%, 26.38092%)" offset="0.328125"/><stop stop-opacity="1" stop-color="rgb(6.904602%, 6.639099%, 26.693726%)" offset="0.332031"/><stop stop-opacity="1" stop-color="rgb(6.987%, 6.718445%, 27.008057%)" offset="0.335938"/><stop stop-opacity="1" stop-color="rgb(7.067871%, 6.796265%, 27.322388%)" offset="0.339844"/><stop stop-opacity="1" stop-color="rgb(7.148743%, 6.874084%, 27.636719%)" offset="0.34375"/><stop stop-opacity="1" stop-color="rgb(7.229614%, 6.951904%, 27.95105%)" offset="0.347656"/><stop stop-opacity="1" stop-color="rgb(7.312012%, 7.029724%, 28.265381%)" offset="0.351562"/><stop stop-opacity="1" stop-color="rgb(7.392883%, 7.107544%, 28.578186%)" offset="0.355469"/><stop stop-opacity="1" stop-color="rgb(7.473755%, 7.18689%, 28.892517%)" offset="0.359375"/><stop stop-opacity="1" stop-color="rgb(7.554626%, 7.264709%, 29.206848%)" offset="0.363281"/><stop stop-opacity="1" stop-color="rgb(7.637024%, 7.342529%, 29.521179%)" offset="0.367188"/><stop stop-opacity="1" stop-color="rgb(7.717896%, 7.420349%, 29.83551%)" offset="0.371094"/><stop stop-opacity="1" stop-color="rgb(7.798767%, 7.499695%, 30.149841%)" offset="0.375"/><stop stop-opacity="1" stop-color="rgb(7.879639%, 7.577515%, 30.462646%)" offset="0.378906"/><stop stop-opacity="1" stop-color="rgb(7.962036%, 7.655334%, 30.776978%)" offset="0.382812"/><stop stop-opacity="1" stop-color="rgb(8.042908%, 7.733154%, 31.091309%)" offset="0.386719"/><stop stop-opacity="1" stop-color="rgb(8.123779%, 7.810974%, 31.40564%)" offset="0.390625"/><stop stop-opacity="1" stop-color="rgb(8.204651%, 7.888794%, 31.719971%)" offset="0.394531"/><stop stop-opacity="1" stop-color="rgb(8.287048%, 7.96814%, 32.034302%)" offset="0.398438"/><stop stop-opacity="1" stop-color="rgb(8.36792%, 8.045959%, 32.347107%)" offset="0.402344"/><stop stop-opacity="1" stop-color="rgb(8.448792%, 8.123779%, 32.661438%)" offset="0.40625"/><stop stop-opacity="1" stop-color="rgb(8.529663%, 8.201599%, 32.975769%)" offset="0.410156"/><stop stop-opacity="1" stop-color="rgb(8.612061%, 8.280945%, 33.2901%)" offset="0.414062"/><stop stop-opacity="1" stop-color="rgb(8.692932%, 8.358765%, 33.602905%)" offset="0.417969"/><stop stop-opacity="1" stop-color="rgb(8.773804%, 8.436584%, 33.917236%)" offset="0.421875"/><stop stop-opacity="1" stop-color="rgb(8.854675%, 8.514404%, 34.231567%)" offset="0.425781"/><stop stop-opacity="1" stop-color="rgb(8.937073%, 8.592224%, 34.545898%)" offset="0.429688"/><stop stop-opacity="1" stop-color="rgb(9.017944%, 8.670044%, 34.860229%)" offset="0.433594"/><stop stop-opacity="1" stop-color="rgb(9.098816%, 8.74939%, 35.174561%)" offset="0.4375"/><stop stop-opacity="1" stop-color="rgb(9.179688%, 8.827209%, 35.487366%)" offset="0.441406"/><stop stop-opacity="1" stop-color="rgb(9.262085%, 8.905029%, 35.801697%)" offset="0.445312"/><stop stop-opacity="1" stop-color="rgb(9.342957%, 8.982849%, 36.116028%)" offset="0.449219"/><stop stop-opacity="1" stop-color="rgb(9.423828%, 9.062195%, 36.430359%)" offset="0.453125"/><stop stop-opacity="1" stop-color="rgb(9.5047%, 9.140015%, 36.74469%)" offset="0.457031"/><stop stop-opacity="1" stop-color="rgb(9.587097%, 9.217834%, 37.059021%)" offset="0.460938"/><stop stop-opacity="1" stop-color="rgb(9.667969%, 9.295654%, 37.371826%)" offset="0.464844"/><stop stop-opacity="1" stop-color="rgb(9.74884%, 9.373474%, 37.686157%)" offset="0.46875"/><stop stop-opacity="1" stop-color="rgb(9.829712%, 9.451294%, 38.000488%)" offset="0.472656"/><stop stop-opacity="1" stop-color="rgb(9.912109%, 9.53064%, 38.314819%)" offset="0.476562"/><stop stop-opacity="1" stop-color="rgb(9.992981%, 9.608459%, 38.62915%)" offset="0.480469"/><stop stop-opacity="1" stop-color="rgb(10.073853%, 9.686279%, 38.943481%)" offset="0.484375"/><stop stop-opacity="1" stop-color="rgb(10.154724%, 9.764099%, 39.256287%)" offset="0.488281"/><stop stop-opacity="1" stop-color="rgb(10.237122%, 9.843445%, 39.570618%)" offset="0.492188"/><stop stop-opacity="1" stop-color="rgb(10.317993%, 9.921265%, 39.884949%)" offset="0.496094"/><stop stop-opacity="1" stop-color="rgb(10.398865%, 9.999084%, 40.19928%)" offset="0.5"/><stop stop-opacity="1" stop-color="rgb(10.479736%, 10.076904%, 40.513611%)" offset="0.503906"/><stop stop-opacity="1" stop-color="rgb(10.562134%, 10.154724%, 40.827942%)" offset="0.507812"/><stop stop-opacity="1" stop-color="rgb(10.643005%, 10.232544%, 41.140747%)" offset="0.511719"/><stop stop-opacity="1" stop-color="rgb(10.723877%, 10.31189%, 41.455078%)" offset="0.515625"/><stop stop-opacity="1" stop-color="rgb(10.804749%, 10.389709%, 41.769409%)" offset="0.519531"/><stop stop-opacity="1" stop-color="rgb(10.887146%, 10.467529%, 42.08374%)" offset="0.523438"/><stop stop-opacity="1" stop-color="rgb(10.968018%, 10.545349%, 42.398071%)" offset="0.527344"/><stop stop-opacity="1" stop-color="rgb(11.048889%, 10.624695%, 42.712402%)" offset="0.53125"/><stop stop-opacity="1" stop-color="rgb(11.129761%, 10.702515%, 43.025208%)" offset="0.535156"/><stop stop-opacity="1" stop-color="rgb(11.212158%, 10.780334%, 43.339539%)" offset="0.539062"/><stop stop-opacity="1" stop-color="rgb(11.29303%, 10.858154%, 43.65387%)" offset="0.542969"/><stop stop-opacity="1" stop-color="rgb(11.373901%, 10.935974%, 43.968201%)" offset="0.546875"/><stop stop-opacity="1" stop-color="rgb(11.454773%, 11.013794%, 44.282532%)" offset="0.550781"/><stop stop-opacity="1" stop-color="rgb(11.53717%, 11.09314%, 44.596863%)" offset="0.554688"/><stop stop-opacity="1" stop-color="rgb(11.618042%, 11.170959%, 44.909668%)" offset="0.558594"/><stop stop-opacity="1" stop-color="rgb(11.698914%, 11.248779%, 45.223999%)" offset="0.5625"/><stop stop-opacity="1" stop-color="rgb(11.779785%, 11.326599%, 45.53833%)" offset="0.566406"/><stop stop-opacity="1" stop-color="rgb(11.862183%, 11.405945%, 45.852661%)" offset="0.570312"/><stop stop-opacity="1" stop-color="rgb(11.943054%, 11.483765%, 46.165466%)" offset="0.574219"/><stop stop-opacity="1" stop-color="rgb(12.023926%, 11.561584%, 46.479797%)" offset="0.578125"/><stop stop-opacity="1" stop-color="rgb(12.104797%, 11.639404%, 46.794128%)" offset="0.582031"/><stop stop-opacity="1" stop-color="rgb(12.187195%, 11.717224%, 47.108459%)" offset="0.585938"/><stop stop-opacity="1" stop-color="rgb(12.268066%, 11.795044%, 47.422791%)" offset="0.589844"/><stop stop-opacity="1" stop-color="rgb(12.348938%, 11.87439%, 47.737122%)" offset="0.59375"/><stop stop-opacity="1" stop-color="rgb(12.42981%, 11.952209%, 48.049927%)" offset="0.597656"/><stop stop-opacity="1" stop-color="rgb(12.512207%, 12.030029%, 48.364258%)" offset="0.601562"/><stop stop-opacity="1" stop-color="rgb(12.593079%, 12.107849%, 48.678589%)" offset="0.605469"/><stop stop-opacity="1" stop-color="rgb(12.67395%, 12.187195%, 48.99292%)" offset="0.609375"/><stop stop-opacity="1" stop-color="rgb(12.754822%, 12.265015%, 49.307251%)" offset="0.613281"/><stop stop-opacity="1" stop-color="rgb(12.837219%, 12.342834%, 49.621582%)" offset="0.617188"/><stop stop-opacity="1" stop-color="rgb(12.918091%, 12.420654%, 49.934387%)" offset="0.621094"/><stop stop-opacity="1" stop-color="rgb(12.998962%, 12.498474%, 50.248718%)" offset="0.625"/><stop stop-opacity="1" stop-color="rgb(13.079834%, 12.576294%, 50.563049%)" offset="0.628906"/><stop stop-opacity="1" stop-color="rgb(13.162231%, 12.65564%, 50.87738%)" offset="0.632812"/><stop stop-opacity="1" stop-color="rgb(13.243103%, 12.733459%, 51.191711%)" offset="0.636719"/><stop stop-opacity="1" stop-color="rgb(13.323975%, 12.811279%, 51.506042%)" offset="0.640625"/><stop stop-opacity="1" stop-color="rgb(13.404846%, 12.889099%, 51.818848%)" offset="0.644531"/><stop stop-opacity="1" stop-color="rgb(13.487244%, 12.968445%, 52.133179%)" offset="0.648438"/><stop stop-opacity="1" stop-color="rgb(13.568115%, 13.046265%, 52.44751%)" offset="0.652344"/><stop stop-opacity="1" stop-color="rgb(13.648987%, 13.124084%, 52.761841%)" offset="0.65625"/><stop stop-opacity="1" stop-color="rgb(13.729858%, 13.201904%, 53.076172%)" offset="0.660156"/><stop stop-opacity="1" stop-color="rgb(13.812256%, 13.279724%, 53.390503%)" offset="0.664062"/><stop stop-opacity="1" stop-color="rgb(13.893127%, 13.357544%, 53.703308%)" offset="0.667969"/><stop stop-opacity="1" stop-color="rgb(13.973999%, 13.43689%, 54.017639%)" offset="0.671875"/><stop stop-opacity="1" stop-color="rgb(14.054871%, 13.514709%, 54.33197%)" offset="0.675781"/><stop stop-opacity="1" stop-color="rgb(14.137268%, 13.592529%, 54.646301%)" offset="0.679688"/><stop stop-opacity="1" stop-color="rgb(14.21814%, 13.670349%, 54.960632%)" offset="0.683594"/><stop stop-opacity="1" stop-color="rgb(14.299011%, 13.749695%, 55.274963%)" offset="0.6875"/><stop stop-opacity="1" stop-color="rgb(14.379883%, 13.827515%, 55.587769%)" offset="0.691406"/><stop stop-opacity="1" stop-color="rgb(14.46228%, 13.905334%, 55.9021%)" offset="0.695312"/><stop stop-opacity="1" stop-color="rgb(14.543152%, 13.983154%, 56.216431%)" offset="0.699219"/><stop stop-opacity="1" stop-color="rgb(14.624023%, 14.060974%, 56.530762%)" offset="0.703125"/><stop stop-opacity="1" stop-color="rgb(14.704895%, 14.138794%, 56.843567%)" offset="0.707031"/><stop stop-opacity="1" stop-color="rgb(14.787292%, 14.21814%, 57.157898%)" offset="0.710938"/><stop stop-opacity="1" stop-color="rgb(14.868164%, 14.295959%, 57.472229%)" offset="0.714844"/><stop stop-opacity="1" stop-color="rgb(14.949036%, 14.373779%, 57.78656%)" offset="0.71875"/><stop stop-opacity="1" stop-color="rgb(15.029907%, 14.451599%, 58.100891%)" offset="0.722656"/><stop stop-opacity="1" stop-color="rgb(15.112305%, 14.530945%, 58.415222%)" offset="0.726562"/><stop stop-opacity="1" stop-color="rgb(15.193176%, 14.608765%, 58.728027%)" offset="0.730469"/><stop stop-opacity="1" stop-color="rgb(15.274048%, 14.686584%, 59.042358%)" offset="0.734375"/><stop stop-opacity="1" stop-color="rgb(15.354919%, 14.764404%, 59.356689%)" offset="0.738281"/><stop stop-opacity="1" stop-color="rgb(15.437317%, 14.842224%, 59.671021%)" offset="0.742188"/><stop stop-opacity="1" stop-color="rgb(15.518188%, 14.920044%, 59.985352%)" offset="0.746094"/><stop stop-opacity="1" stop-color="rgb(15.59906%, 14.99939%, 60.299683%)" offset="0.75"/><stop stop-opacity="1" stop-color="rgb(15.679932%, 15.077209%, 60.612488%)" offset="0.753906"/><stop stop-opacity="1" stop-color="rgb(15.762329%, 15.155029%, 60.926819%)" offset="0.757812"/><stop stop-opacity="1" stop-color="rgb(15.843201%, 15.232849%, 61.24115%)" offset="0.761719"/><stop stop-opacity="1" stop-color="rgb(15.924072%, 15.312195%, 61.555481%)" offset="0.765625"/><stop stop-opacity="1" stop-color="rgb(16.004944%, 15.390015%, 61.869812%)" offset="0.769531"/><stop stop-opacity="1" stop-color="rgb(16.087341%, 15.467834%, 62.184143%)" offset="0.773438"/><stop stop-opacity="1" stop-color="rgb(16.168213%, 15.545654%, 62.496948%)" offset="0.777344"/><stop stop-opacity="1" stop-color="rgb(16.249084%, 15.623474%, 62.811279%)" offset="0.78125"/><stop stop-opacity="1" stop-color="rgb(16.329956%, 15.701294%, 63.12561%)" offset="0.785156"/><stop stop-opacity="1" stop-color="rgb(16.412354%, 15.78064%, 63.439941%)" offset="0.789062"/><stop stop-opacity="1" stop-color="rgb(16.493225%, 15.858459%, 63.754272%)" offset="0.792969"/><stop stop-opacity="1" stop-color="rgb(16.574097%, 15.936279%, 64.068604%)" offset="0.796875"/><stop stop-opacity="1" stop-color="rgb(16.654968%, 16.014099%, 64.381409%)" offset="0.800781"/><stop stop-opacity="1" stop-color="rgb(16.737366%, 16.093445%, 64.69574%)" offset="0.804688"/><stop stop-opacity="1" stop-color="rgb(16.818237%, 16.171265%, 65.010071%)" offset="0.808594"/><stop stop-opacity="1" stop-color="rgb(16.899109%, 16.249084%, 65.324402%)" offset="0.8125"/><stop stop-opacity="1" stop-color="rgb(16.97998%, 16.326904%, 65.638733%)" offset="0.816406"/><stop stop-opacity="1" stop-color="rgb(17.062378%, 16.404724%, 65.953064%)" offset="0.820312"/><stop stop-opacity="1" stop-color="rgb(17.14325%, 16.482544%, 66.265869%)" offset="0.824219"/><stop stop-opacity="1" stop-color="rgb(17.224121%, 16.56189%, 66.5802%)" offset="0.828125"/><stop stop-opacity="1" stop-color="rgb(17.304993%, 16.639709%, 66.894531%)" offset="0.832031"/><stop stop-opacity="1" stop-color="rgb(17.38739%, 16.717529%, 67.208862%)" offset="0.835938"/><stop stop-opacity="1" stop-color="rgb(17.468262%, 16.795349%, 67.521667%)" offset="0.839844"/><stop stop-opacity="1" stop-color="rgb(17.549133%, 16.874695%, 67.835999%)" offset="0.84375"/><stop stop-opacity="1" stop-color="rgb(17.630005%, 16.952515%, 68.15033%)" offset="0.847656"/><stop stop-opacity="1" stop-color="rgb(17.712402%, 17.030334%, 68.464661%)" offset="0.851562"/><stop stop-opacity="1" stop-color="rgb(17.793274%, 17.108154%, 68.778992%)" offset="0.855469"/><stop stop-opacity="1" stop-color="rgb(17.874146%, 17.185974%, 69.093323%)" offset="0.859375"/><stop stop-opacity="1" stop-color="rgb(17.955017%, 17.263794%, 69.406128%)" offset="0.863281"/><stop stop-opacity="1" stop-color="rgb(18.037415%, 17.34314%, 69.720459%)" offset="0.867188"/><stop stop-opacity="1" stop-color="rgb(18.118286%, 17.420959%, 70.03479%)" offset="0.871094"/><stop stop-opacity="1" stop-color="rgb(18.199158%, 17.498779%, 70.349121%)" offset="0.875"/><stop stop-opacity="1" stop-color="rgb(18.280029%, 17.576599%, 70.663452%)" offset="0.878906"/><stop stop-opacity="1" stop-color="rgb(18.362427%, 17.655945%, 70.977783%)" offset="0.882812"/><stop stop-opacity="1" stop-color="rgb(18.443298%, 17.733765%, 71.290588%)" offset="0.886719"/><stop stop-opacity="1" stop-color="rgb(18.52417%, 17.811584%, 71.604919%)" offset="0.890625"/><stop stop-opacity="1" stop-color="rgb(18.605042%, 17.889404%, 71.91925%)" offset="0.894531"/><stop stop-opacity="1" stop-color="rgb(18.687439%, 17.967224%, 72.233582%)" offset="0.898438"/><stop stop-opacity="1" stop-color="rgb(18.768311%, 18.045044%, 72.547913%)" offset="0.902344"/><stop stop-opacity="1" stop-color="rgb(18.849182%, 18.12439%, 72.862244%)" offset="0.90625"/><stop stop-opacity="1" stop-color="rgb(18.930054%, 18.202209%, 73.175049%)" offset="0.910156"/><stop stop-opacity="1" stop-color="rgb(19.012451%, 18.280029%, 73.48938%)" offset="0.914062"/><stop stop-opacity="1" stop-color="rgb(19.093323%, 18.357849%, 73.803711%)" offset="0.917969"/><stop stop-opacity="1" stop-color="rgb(19.174194%, 18.437195%, 74.118042%)" offset="0.921875"/><stop stop-opacity="1" stop-color="rgb(19.255066%, 18.515015%, 74.432373%)" offset="0.925781"/><stop stop-opacity="1" stop-color="rgb(19.337463%, 18.592834%, 74.746704%)" offset="0.929688"/><stop stop-opacity="1" stop-color="rgb(19.418335%, 18.670654%, 75.059509%)" offset="0.933594"/><stop stop-opacity="1" stop-color="rgb(19.499207%, 18.748474%, 75.37384%)" offset="0.9375"/><stop stop-opacity="1" stop-color="rgb(19.580078%, 18.826294%, 75.688171%)" offset="0.941406"/><stop stop-opacity="1" stop-color="rgb(19.662476%, 18.90564%, 76.002502%)" offset="0.945312"/><stop stop-opacity="1" stop-color="rgb(19.743347%, 18.983459%, 76.316833%)" offset="0.949219"/><stop stop-opacity="1" stop-color="rgb(19.824219%, 19.061279%, 76.631165%)" offset="0.953125"/><stop stop-opacity="1" stop-color="rgb(19.90509%, 19.139099%, 76.94397%)" offset="0.957031"/><stop stop-opacity="1" stop-color="rgb(19.987488%, 19.218445%, 77.258301%)" offset="0.960938"/><stop stop-opacity="1" stop-color="rgb(20.068359%, 19.296265%, 77.572632%)" offset="0.964844"/><stop stop-opacity="1" stop-color="rgb(20.149231%, 19.374084%, 77.886963%)" offset="0.96875"/><stop stop-opacity="1" stop-color="rgb(20.230103%, 19.451904%, 78.199768%)" offset="0.972656"/><stop stop-opacity="1" stop-color="rgb(20.310974%, 19.529724%, 78.514099%)" offset="0.976562"/><stop stop-opacity="1" stop-color="rgb(20.391846%, 19.607544%, 78.82843%)" offset="0.980469"/><stop stop-opacity="1" stop-color="rgb(20.474243%, 19.68689%, 79.142761%)" offset="0.984375"/><stop stop-opacity="1" stop-color="rgb(20.555115%, 19.764709%, 79.457092%)" offset="0.988281"/><stop stop-opacity="1" stop-color="rgb(20.635986%, 19.842529%, 79.771423%)" offset="0.992188"/><stop stop-opacity="1" stop-color="rgb(20.716858%, 19.920349%, 80.084229%)" offset="0.996094"/><stop stop-opacity="1" stop-color="rgb(20.799255%, 19.999695%, 80.39856%)" offset="1"/></linearGradient><clipPath id="b4e1916d7f"><path d="M 151.957031 64 L 1384.207031 64 L 1384.207031 864 L 151.957031 864 Z M 151.957031 64 " clip-rule="nonzero"/></clipPath><clipPath id="03e9336c12"><path d="M 151.957031 244 L 1384.207031 244 L 1384.207031 769 L 151.957031 769 Z M 151.957031 244 " clip-rule="nonzero"/></clipPath><clipPath id="44bbe4ef05"><path d="M 151.957031 64 L 1384.207031 64 L 1384.207031 864 L 151.957031 864 Z M 151.957031 64 " clip-rule="nonzero"/></clipPath><clipPath id="b8a0200fd9"><path d="M 151.957031 244 L 1384.207031 244 L 1384.207031 769 L 151.957031 769 Z M 151.957031 244 " clip-rule="nonzero"/></clipPath></defs><rect x="-153.6" width="1843.2" fill="#ffffff" y="-86.399999" height="1036.79999" fill-opacity="1"/><rect x="-153.6" fill="url(#2d219f25a3)" width="1843.2" y="-86.399999" height="1036.79999"/><path fill="#f8efe3" d="M 982.667969 138.042969 L 559.421875 138.042969 C 531.816406 138.042969 509.230469 115.460938 509.230469 87.855469 L 509.230469 50.53125 C 509.230469 22.929688 531.816406 0.34375 559.421875 0.34375 L 982.667969 0.34375 C 1010.269531 0.34375 1032.863281 22.929688 1032.863281 50.53125 L 1032.863281 87.855469 C 1032.863281 115.460938 1010.269531 138.042969 982.667969 138.042969 " fill-opacity="1" fill-rule="nonzero"/><path fill="#b8c4c3" d="M 337.816406 108.796875 L 471.035156 108.796875 C 480.152344 108.796875 487.605469 101.347656 487.605469 92.226562 L 487.605469 40.835938 C 487.605469 31.714844 480.152344 24.265625 471.035156 24.265625 L 337.816406 24.265625 C 328.703125 24.265625 321.246094 31.714844 321.246094 40.835938 L 321.246094 92.226562 C 321.246094 101.347656 328.703125 108.796875 337.816406 108.796875 " fill-opacity="1" fill-rule="nonzero"/><path fill="#9ea7a7" d="M 487.605469 54.878906 L 487.605469 85.566406 C 487.605469 98.34375 476.296875 108.796875 462.476562 108.796875 L 346.375 108.796875 C 332.558594 108.796875 321.246094 98.34375 321.246094 85.566406 L 321.246094 54.878906 L 487.605469 54.878906 " fill-opacity="1" fill-rule="nonzero"/><path fill="#9ea7a7" d="M 344.148438 24.371094 L 337.394531 24.371094 L 337.394531 58.964844 L 344.148438 58.964844 L 344.148438 24.371094 " fill-opacity="1" fill-rule="nonzero"/><path fill="#9ea7a7" d="M 365.253906 24.371094 L 358.503906 24.371094 L 358.503906 58.964844 L 365.253906 58.964844 L 365.253906 24.371094 " fill-opacity="1" fill-rule="nonzero"/><path fill="#9ea7a7" d="M 386.363281 24.371094 L 379.609375 24.371094 L 379.609375 58.964844 L 386.363281 58.964844 L 386.363281 24.371094 " fill-opacity="1" fill-rule="nonzero"/><path fill="#9ea7a7" d="M 407.46875 24.371094 L 400.714844 24.371094 L 400.714844 58.964844 L 407.46875 58.964844 L 407.46875 24.371094 " fill-opacity="1" fill-rule="nonzero"/><path fill="#9ea7a7" d="M 428.574219 24.371094 L 421.820312 24.371094 L 421.820312 58.964844 L 428.574219 58.964844 L 428.574219 24.371094 " fill-opacity="1" fill-rule="nonzero"/><path fill="#9ea7a7" d="M 449.679688 24.371094 L 442.925781 24.371094 L 442.925781 58.964844 L 449.679688 58.964844 L 449.679688 24.371094 " fill-opacity="1" fill-rule="nonzero"/><path fill="#9ea7a7" d="M 470.785156 24.371094 L 464.035156 24.371094 L 464.035156 58.964844 L 470.785156 58.964844 L 470.785156 24.371094 " fill-opacity="1" fill-rule="nonzero"/><path fill="#d1d3dc" d="M 329.257812 32.882812 C 328.511719 32.859375 327.753906 33.300781 327.386719 33.949219 C 326.085938 36.25 326.453125 38.917969 326.769531 41.433594 C 326.914062 42.625 327.105469 43.820312 327.199219 45.015625 C 327.304688 46.300781 327 47.605469 327.457031 48.832031 C 327.613281 49.253906 328.078125 49.652344 328.5625 49.460938 C 331.800781 48.179688 331.175781 43.390625 331.015625 40.609375 C 330.894531 38.488281 332.699219 32.980469 329.257812 32.882812 " fill-opacity="1" fill-rule="nonzero"/><path fill="#d1d3dc" d="M 352.4375 28.671875 C 352.007812 27.914062 350.792969 27.671875 350.1875 28.378906 C 348.132812 30.761719 348.144531 33.710938 347.972656 36.769531 C 347.75 40.667969 347.703125 44.625 348.03125 48.515625 C 348.113281 49.417969 349.226562 49.53125 349.558594 48.71875 C 351.050781 45.109375 352.125 41.28125 352.796875 37.421875 C 353.320312 34.4375 354.007812 31.394531 352.4375 28.671875 " fill-opacity="1" fill-rule="nonzero"/><path fill="#d1d3dc" d="M 374.503906 31.03125 C 373.859375 29.5625 371.351562 29.609375 370.683594 31.03125 C 369.222656 34.160156 369.355469 37.421875 369.152344 40.804688 C 368.9375 44.414062 368.9375 47.601562 369.425781 51.175781 C 369.59375 52.386719 371.410156 52.464844 371.941406 51.507812 C 375.078125 45.863281 377.195312 37.199219 374.503906 31.03125 " fill-opacity="1" fill-rule="nonzero"/><path fill="#d1d3dc" d="M 396.410156 32.207031 C 395.828125 31.460938 394.378906 31.5 393.789062 32.207031 C 392.058594 34.265625 391.746094 36.519531 391.40625 39.121094 C 391.226562 40.488281 391.050781 41.777344 391.078125 43.160156 C 391.105469 44.683594 391.539062 46.082031 391.59375 47.601562 C 391.644531 48.921875 393.210938 49.203125 393.9375 48.230469 C 394.882812 46.960938 395.914062 46.089844 396.613281 44.652344 C 397.359375 43.105469 397.699219 41.707031 397.949219 40.007812 C 398.375 37.09375 398.289062 34.582031 396.410156 32.207031 " fill-opacity="1" fill-rule="nonzero"/><path fill="#d1d3dc" d="M 417.320312 26.304688 C 416.972656 25.140625 415.320312 24.867188 414.699219 25.957031 C 410.847656 32.707031 411.980469 41.105469 412.488281 48.523438 C 412.558594 49.582031 414.042969 49.847656 414.367188 48.777344 C 416.523438 41.707031 419.539062 33.714844 417.320312 26.304688 " fill-opacity="1" fill-rule="nonzero"/><path fill="#d1d3dc" d="M 437.363281 29.148438 C 437.074219 28.332031 435.976562 28.117188 435.507812 28.898438 C 432.097656 34.550781 431.5 43.003906 432.046875 49.441406 C 432.152344 50.691406 433.933594 51.449219 434.609375 50.132812 C 437.707031 44.132812 439.71875 35.675781 437.363281 29.148438 " fill-opacity="1" fill-rule="nonzero"/><path fill="#d1d3dc" d="M 459.5 33.851562 C 459 32.519531 456.996094 31.5 455.902344 32.90625 C 452.683594 37.011719 453.234375 43.585938 454.191406 48.382812 C 454.382812 49.351562 455.808594 49.472656 456.265625 48.652344 C 458.46875 44.695312 461.203125 38.4375 459.5 33.851562 " fill-opacity="1" fill-rule="nonzero"/><path fill="#d1d3dc" d="M 480.25 33.46875 C 479.671875 32.386719 478.175781 32.292969 477.339844 33.09375 C 473.15625 37.078125 474.167969 44.757812 474.804688 49.890625 C 474.949219 51.082031 476.714844 51.972656 477.363281 50.589844 C 479.652344 45.738281 483.074219 38.714844 480.25 33.46875 " fill-opacity="1" fill-rule="nonzero"/><path fill="#9aa4a4" d="M 1239.273438 84.875 L 1101.910156 84.875 C 1092.578125 84.875 1084.929688 77.238281 1084.929688 67.898438 L 1084.929688 17.320312 C 1084.929688 7.980469 1092.578125 0.34375 1101.910156 0.34375 L 1239.273438 0.34375 C 1248.613281 0.34375 1256.253906 7.980469 1256.253906 17.320312 L 1256.253906 67.898438 C 1256.253906 77.238281 1248.613281 84.875 1239.273438 84.875 " fill-opacity="1" fill-rule="nonzero"/><path fill="#b8c4c3" d="M 245.542969 108.796875 L 278.4375 108.796875 C 287.015625 108.796875 294.035156 101.78125 294.035156 93.203125 L 294.035156 39.863281 C 294.035156 31.28125 287.015625 24.265625 278.4375 24.265625 L 245.542969 24.265625 C 236.964844 24.265625 229.945312 31.28125 229.945312 39.863281 L 229.945312 93.203125 C 229.945312 101.78125 236.964844 108.796875 245.542969 108.796875 " fill-opacity="1" fill-rule="nonzero"/><path fill="#b8c4c3" d="M 1254.390625 106.972656 L 1079.808594 106.972656 C 1063.410156 106.972656 1049.984375 93.546875 1049.984375 77.152344 L 1049.984375 52.253906 C 1049.984375 35.851562 1063.410156 22.4375 1079.808594 22.4375 L 1254.390625 22.4375 C 1270.785156 22.4375 1284.203125 35.851562 1284.203125 52.253906 L 1284.203125 77.152344 C 1284.203125 93.546875 1270.785156 106.972656 1254.390625 106.972656 " fill-opacity="1" fill-rule="nonzero"/><path fill="#9ea7a7" d="M 294.035156 54.878906 L 294.035156 94.375 C 294.035156 102.304688 287.015625 108.796875 278.4375 108.796875 L 245.542969 108.796875 C 236.964844 108.796875 229.945312 102.304688 229.945312 94.375 L 229.945312 54.878906 L 294.035156 54.878906 " fill-opacity="1" fill-rule="nonzero"/><path fill="#9ea7a7" d="M 1050.101562 48.644531 C 1050.046875 49.355469 1049.992188 50.066406 1049.992188 50.789062 L 1049.992188 78.609375 C 1049.992188 94.207031 1064.101562 106.972656 1081.347656 106.972656 L 1252.851562 106.972656 C 1270.09375 106.972656 1284.203125 94.207031 1284.203125 78.609375 L 1284.203125 50.789062 C 1284.203125 50.066406 1284.148438 49.355469 1284.085938 48.644531 L 1050.101562 48.644531 " fill-opacity="1" fill-rule="nonzero"/><g clip-path="url(#b4e1916d7f)"><path fill="#f8efe3" d="M 1324.292969 863.667969 L 211.882812 863.667969 C 178.933594 863.667969 151.976562 836.710938 151.976562 803.765625 L 151.976562 124.605469 C 151.976562 91.65625 178.933594 64.699219 211.882812 64.699219 L 1324.292969 64.699219 C 1357.25 64.699219 1384.199219 91.65625 1384.199219 124.605469 L 1384.199219 803.765625 C 1384.199219 836.710938 1357.25 863.667969 1324.292969 863.667969 " fill-opacity="1" fill-rule="nonzero"/></g><g clip-path="url(#03e9336c12)"><path fill="#8164b9" d="M 1384.199219 768.234375 L 151.976562 768.234375 L 151.976562 244.605469 L 1384.199219 244.605469 L 1384.199219 768.234375 " fill-opacity="1" fill-rule="nonzero"/></g><path fill="#a675c1" d="M 1329.65625 768.234375 L 206.519531 768.234375 L 206.519531 244.609375 L 1329.65625 244.609375 L 1329.65625 768.234375 " fill-opacity="1" fill-rule="nonzero"/><path fill="#d1d3dc" d="M 1264.792969 34.632812 C 1254.394531 28.679688 1239.101562 30.898438 1227.117188 30.8125 C 1210.679688 30.695312 1194.203125 31.097656 1177.769531 31.273438 C 1145.636719 31.625 1113.695312 32.683594 1081.820312 36.101562 C 1080.367188 36.261719 1080.371094 37.96875 1081.820312 38.136719 C 1113.6875 41.789062 1145.613281 43.085938 1177.769531 43.667969 C 1193.296875 43.945312 1208.839844 44.4375 1224.378906 44.507812 C 1237.171875 44.566406 1253.640625 47.199219 1264.792969 40.929688 C 1267.417969 39.449219 1267.378906 36.109375 1264.792969 34.632812 " fill-opacity="1" fill-rule="nonzero"/><path fill="#d1d3dc" d="M 245.785156 31.476562 C 253.089844 30.347656 260.382812 30.574219 267.753906 30.601562 C 274.09375 30.625 281.164062 30.355469 286.414062 34.398438 C 287.621094 35.324219 288.316406 37.226562 286.933594 38.4375 C 282.351562 42.4375 276.542969 43 270.648438 43.449219 C 263.015625 44.035156 255.136719 44.894531 247.5 44.15625 C 240.898438 43.515625 238.011719 32.679688 245.785156 31.476562 " fill-opacity="1" fill-rule="nonzero"/><path fill="#fffef5" d="M 1360.152344 131.066406 C 1360.394531 122.351562 1360.554688 113.324219 1355.582031 105.308594 C 1341.914062 83.242188 1299.523438 80.128906 1264.964844 80.339844 C 1012.722656 81.90625 760.488281 83.472656 508.25 85.042969 C 444.386719 85.433594 380.519531 85.828125 316.679688 87.007812 C 277.867188 87.71875 238.523438 88.789062 201.457031 96.828125 C 196.078125 97.992188 190.535156 99.40625 186.714844 102.289062 C 182.632812 105.367188 181.144531 109.667969 179.902344 113.773438 C 171.339844 142.101562 167.511719 171.109375 168.527344 200.042969 C 168.746094 206.273438 169.53125 213.085938 175.742188 217.578125 C 182.859375 222.722656 194.390625 222.957031 204.65625 222.84375 C 234.863281 222.511719 265.070312 222.183594 295.277344 221.867188 C 625.1875 218.503906 955.160156 217.886719 1285.089844 220.027344 C 1309.445312 220.191406 1346.34375 226.308594 1355.878906 205.792969 C 1366.136719 183.742188 1359.519531 154.03125 1360.152344 131.066406 " fill-opacity="1" fill-rule="nonzero"/><path fill="#fffef5" d="M 1012.242188 59.289062 C 1012.328125 51.578125 1012.394531 43.59375 1010.375 36.515625 C 1004.796875 17 987.519531 14.25 973.425781 14.4375 C 870.597656 15.820312 767.757812 17.203125 664.929688 18.585938 C 638.890625 18.929688 612.855469 19.285156 586.828125 20.328125 C 571.003906 20.953125 554.960938 21.898438 539.851562 29.011719 C 537.660156 30.039062 535.402344 31.289062 533.84375 33.835938 C 532.179688 36.5625 531.570312 40.359375 531.066406 43.992188 C 527.574219 69.039062 526.015625 94.691406 526.425781 120.277344 C 526.515625 125.789062 526.839844 131.816406 529.367188 135.785156 C 532.269531 140.332031 536.972656 140.542969 541.160156 140.4375 C 553.472656 140.144531 565.785156 139.851562 578.101562 139.582031 C 712.601562 136.597656 847.125 136.058594 981.636719 137.953125 C 991.566406 138.09375 1006.609375 143.507812 1010.496094 125.367188 C 1014.675781 105.871094 1011.976562 79.589844 1012.242188 59.289062 " fill-opacity="1" fill-rule="nonzero"/><path fill="#fffef5" d="M 1360.152344 829.234375 C 1360.394531 833.292969 1360.554688 837.492188 1355.582031 841.222656 C 1341.914062 851.492188 1299.523438 852.941406 1264.964844 852.84375 C 1012.722656 852.113281 760.488281 851.382812 508.25 850.65625 C 444.386719 850.472656 380.519531 850.285156 316.679688 849.738281 C 277.867188 849.410156 238.523438 848.914062 201.457031 845.167969 C 196.078125 844.628906 190.535156 843.964844 186.714844 842.628906 C 182.632812 841.191406 181.144531 839.195312 179.902344 837.28125 C 171.339844 824.097656 167.511719 810.597656 168.527344 797.128906 C 168.746094 794.238281 169.53125 791.058594 175.742188 788.964844 C 182.859375 786.574219 194.390625 786.460938 204.65625 786.515625 C 234.863281 786.671875 265.070312 786.824219 295.277344 786.964844 C 625.1875 788.539062 955.160156 788.824219 1285.089844 787.828125 C 1309.445312 787.757812 1346.34375 784.910156 1355.878906 794.453125 C 1366.136719 804.714844 1359.519531 818.542969 1360.152344 829.234375 " fill-opacity="1" fill-rule="nonzero"/><path fill="#c2aea6" d="M 415.015625 216.320312 C 398.882812 216.320312 385.808594 203.242188 385.808594 187.109375 C 385.808594 170.988281 398.882812 157.910156 415.015625 157.910156 C 431.148438 157.910156 444.222656 170.988281 444.222656 187.109375 C 444.222656 203.242188 431.148438 216.320312 415.015625 216.320312 " fill-opacity="1" fill-rule="nonzero"/><path fill="#a59d95" d="M 415.015625 203.152344 C 406.160156 203.152344 398.976562 195.972656 398.976562 187.109375 C 398.976562 178.253906 406.160156 171.078125 415.015625 171.078125 C 423.875 171.078125 431.050781 178.253906 431.050781 187.109375 C 431.050781 195.972656 423.875 203.152344 415.015625 203.152344 " fill-opacity="1" fill-rule="nonzero"/><path fill="#8164b9" d="M 1298.101562 329.398438 C 1298.101562 352.507812 1279.363281 371.242188 1256.25 371.242188 C 1233.132812 371.242188 1214.394531 352.507812 1214.394531 329.398438 C 1214.394531 306.285156 1233.132812 287.546875 1256.25 287.546875 C 1279.363281 287.546875 1298.101562 306.285156 1298.101562 329.398438 " fill-opacity="1" fill-rule="nonzero"/><path fill="#f8efe3" d="M 1279.230469 329.398438 C 1279.230469 342.089844 1268.941406 352.375 1256.246094 352.375 C 1243.554688 352.375 1233.261719 342.089844 1233.261719 329.398438 C 1233.261719 316.707031 1243.554688 306.414062 1256.246094 306.414062 C 1268.941406 306.414062 1279.230469 316.707031 1279.230469 329.398438 " fill-opacity="1" fill-rule="nonzero"/><path fill="#53488a" d="M 1279.230469 420.289062 C 1279.230469 432.980469 1268.941406 443.269531 1256.246094 443.269531 C 1243.554688 443.269531 1233.261719 432.980469 1233.261719 420.289062 C 1233.261719 407.601562 1243.554688 397.308594 1256.246094 397.308594 C 1268.941406 397.308594 1279.230469 407.601562 1279.230469 420.289062 " fill-opacity="1" fill-rule="nonzero"/><path fill="#c2aea6" d="M 415.015625 145.28125 C 398.882812 145.28125 385.808594 132.199219 385.808594 116.078125 C 385.808594 99.945312 398.882812 86.867188 415.015625 86.867188 C 431.148438 86.867188 444.222656 99.945312 444.222656 116.078125 C 444.222656 132.199219 431.148438 145.28125 415.015625 145.28125 " fill-opacity="1" fill-rule="nonzero"/><path fill="#a59d95" d="M 415.015625 132.113281 C 406.160156 132.113281 398.976562 124.933594 398.976562 116.078125 C 398.976562 107.214844 406.160156 100.035156 415.015625 100.035156 C 423.875 100.035156 431.050781 107.214844 431.050781 116.078125 C 431.050781 124.933594 423.875 132.113281 415.015625 132.113281 " fill-opacity="1" fill-rule="nonzero"/><path fill="#addcf6" d="M 334.277344 203.65625 L 235.152344 203.65625 C 221.773438 203.65625 210.929688 192.816406 210.929688 179.445312 L 210.929688 126.238281 C 210.929688 112.867188 221.773438 102.019531 235.152344 102.019531 L 334.277344 102.019531 C 347.65625 102.019531 358.503906 112.867188 358.503906 126.238281 L 358.503906 179.445312 C 358.503906 192.816406 347.65625 203.65625 334.277344 203.65625 " fill-opacity="1" fill-rule="nonzero"/><path fill="#78b9d8" d="M 355.605469 190.050781 L 256.476562 190.050781 C 243.097656 190.050781 232.253906 179.210938 232.253906 165.832031 L 232.253906 112.636719 C 232.253906 108.832031 233.15625 105.246094 234.71875 102.042969 C 221.542969 102.277344 210.929688 113.011719 210.929688 126.238281 L 210.929688 179.445312 C 210.929688 192.816406 221.773438 203.664062 235.152344 203.664062 L 334.277344 203.664062 C 343.855469 203.664062 352.105469 198.09375 356.039062 190.027344 L 355.605469 190.050781 " fill-opacity="1" fill-rule="nonzero"/><path fill="#f3e1c6" d="M 1124.128906 475.890625 C 1124.128906 665.753906 970.191406 819.675781 780.296875 819.675781 C 590.40625 819.675781 436.464844 665.753906 436.464844 475.890625 C 436.464844 286.023438 590.40625 132.113281 780.296875 132.113281 C 970.191406 132.113281 1124.128906 286.023438 1124.128906 475.890625 " fill-opacity="1" fill-rule="nonzero"/><path fill="#c2aea6" d="M 1087.597656 475.890625 C 1087.597656 645.589844 950.011719 783.152344 780.296875 783.152344 C 610.578125 783.152344 472.996094 645.589844 472.996094 475.890625 C 472.996094 306.199219 610.578125 168.636719 780.296875 168.636719 C 950.011719 168.636719 1087.597656 306.199219 1087.597656 475.890625 " fill-opacity="1" fill-rule="nonzero"/><path fill="#8164b9" d="M 1042.183594 475.890625 C 1042.183594 620.503906 924.933594 737.742188 780.296875 737.742188 C 635.660156 737.742188 518.414062 620.503906 518.414062 475.890625 C 518.414062 331.273438 635.660156 214.042969 780.296875 214.042969 C 924.933594 214.042969 1042.183594 331.273438 1042.183594 475.890625 " fill-opacity="1" fill-rule="nonzero"/><path fill="#53488a" d="M 990.367188 475.890625 C 990.367188 593.429688 895.074219 688.707031 777.523438 688.707031 C 659.972656 688.707031 564.683594 593.429688 564.683594 475.890625 C 564.683594 358.359375 659.972656 263.078125 777.523438 263.078125 C 895.074219 263.078125 990.367188 358.359375 990.367188 475.890625 " fill-opacity="1" fill-rule="nonzero"/><path fill="#ead6d3" d="M 1284.03125 201.023438 L 1117.160156 201.023438 C 1100.828125 201.023438 1087.597656 187.785156 1087.597656 171.464844 L 1087.597656 131.722656 C 1087.597656 115.40625 1100.828125 102.164062 1117.160156 102.164062 L 1284.03125 102.164062 C 1300.359375 102.164062 1313.589844 115.40625 1313.589844 131.722656 L 1313.589844 171.464844 C 1313.589844 187.785156 1300.359375 201.023438 1284.03125 201.023438 " fill-opacity="1" fill-rule="nonzero"/><path fill="#c2aea6" d="M 1130.195312 201.015625 L 1120.023438 201.015625 C 1117.21875 201.015625 1114.925781 198.722656 1114.925781 195.917969 L 1114.925781 107.269531 C 1114.925781 104.464844 1117.21875 102.164062 1120.023438 102.164062 L 1130.195312 102.164062 C 1133 102.164062 1135.296875 104.464844 1135.296875 107.269531 L 1135.296875 195.917969 C 1135.296875 198.722656 1133 201.015625 1130.195312 201.015625 " fill-opacity="1" fill-rule="nonzero"/><path fill="#c2aea6" d="M 1168.886719 201.015625 L 1158.71875 201.015625 C 1155.914062 201.015625 1153.613281 198.722656 1153.613281 195.917969 L 1153.613281 107.269531 C 1153.613281 104.464844 1155.914062 102.164062 1158.71875 102.164062 L 1168.886719 102.164062 C 1171.691406 102.164062 1173.984375 104.464844 1173.984375 107.269531 L 1173.984375 195.917969 C 1173.984375 198.722656 1171.691406 201.015625 1168.886719 201.015625 " fill-opacity="1" fill-rule="nonzero"/><path fill="#c2aea6" d="M 1207.574219 201.019531 L 1197.398438 201.019531 C 1194.597656 201.019531 1192.304688 198.726562 1192.304688 195.921875 L 1192.304688 107.273438 C 1192.304688 104.464844 1194.597656 102.171875 1197.398438 102.171875 L 1207.574219 102.171875 C 1210.378906 102.171875 1212.679688 104.464844 1212.679688 107.273438 L 1212.679688 195.921875 C 1212.679688 198.726562 1210.378906 201.019531 1207.574219 201.019531 " fill-opacity="1" fill-rule="nonzero"/><path fill="#c2aea6" d="M 1246.265625 201.027344 L 1236.097656 201.027344 C 1233.292969 201.027344 1230.992188 198.730469 1230.992188 195.917969 L 1230.992188 107.269531 C 1230.992188 104.464844 1233.292969 102.167969 1236.097656 102.167969 L 1246.265625 102.167969 C 1249.070312 102.167969 1251.363281 104.464844 1251.363281 107.269531 L 1251.363281 195.917969 C 1251.363281 198.730469 1249.070312 201.027344 1246.265625 201.027344 " fill-opacity="1" fill-rule="nonzero"/><path fill="#c2aea6" d="M 1284.957031 201.015625 L 1274.796875 201.015625 C 1271.980469 201.015625 1269.6875 198.726562 1269.6875 195.917969 L 1269.6875 107.265625 C 1269.6875 104.464844 1271.980469 102.167969 1274.796875 102.167969 L 1284.957031 102.167969 C 1287.765625 102.167969 1290.0625 104.464844 1290.0625 107.265625 L 1290.0625 195.917969 C 1290.0625 198.726562 1287.765625 201.015625 1284.957031 201.015625 " fill-opacity="1" fill-rule="nonzero"/><path fill="#38336c" d="M 815.597656 560.566406 L 745.378906 560.722656 L 695.613281 511.1875 L 695.457031 440.976562 L 745 391.21875 L 815.21875 391.066406 L 864.980469 440.597656 L 865.136719 510.804688 L 815.597656 560.566406 " fill-opacity="1" fill-rule="nonzero"/><path fill="#38336c" d="M 815.21875 391.066406 C 802.714844 383.328125 790.378906 375.351562 778.058594 367.347656 L 741.273438 343.058594 L 704.816406 318.292969 C 692.722656 309.941406 680.652344 301.5625 668.742188 292.949219 C 681.242188 300.679688 693.585938 308.65625 705.90625 316.664062 L 742.6875 340.949219 L 779.140625 365.726562 C 791.238281 374.066406 803.304688 382.449219 815.21875 391.066406 " fill-opacity="1" fill-rule="nonzero"/><path fill="#38336c" d="M 864.980469 440.597656 C 861.0625 426.355469 857.417969 412.042969 853.816406 397.730469 L 843.3125 354.695312 L 833.382812 311.535156 C 830.179688 297.121094 827.015625 282.695312 824.121094 268.210938 C 828.042969 282.453125 831.691406 296.757812 835.292969 311.078125 L 845.792969 354.113281 L 855.71875 397.28125 C 858.921875 411.6875 862.085938 426.113281 864.980469 440.597656 " fill-opacity="1" fill-rule="nonzero"/><path fill="#38336c" d="M 865.136719 510.804688 C 870.679688 495.996094 876.472656 481.285156 882.308594 466.597656 L 900.105469 422.648438 L 918.445312 378.917969 C 924.664062 364.378906 930.910156 349.863281 937.429688 335.457031 C 931.898438 350.261719 926.101562 364.972656 920.265625 379.667969 L 902.460938 423.617188 L 884.113281 467.34375 C 877.902344 481.875 871.648438 496.394531 865.136719 510.804688 " fill-opacity="1" fill-rule="nonzero"/><path fill="#38336c" d="M 815.597656 560.566406 C 829.925781 554.191406 844.359375 548.078125 858.800781 542.007812 L 902.269531 524.078125 L 945.945312 506.703125 C 960.554688 501.011719 975.167969 495.359375 989.894531 489.964844 C 975.566406 496.335938 961.132812 502.449219 946.683594 508.519531 L 903.222656 526.441406 L 859.539062 543.820312 C 844.9375 549.515625 830.316406 555.171875 815.597656 560.566406 " fill-opacity="1" fill-rule="nonzero"/><path fill="#38336c" d="M 745.378906 560.722656 C 759.925781 566.535156 774.359375 572.609375 788.777344 578.71875 L 831.910156 597.332031 L 874.800781 616.492188 C 889.050781 622.976562 903.289062 629.496094 917.417969 636.277344 C 902.871094 630.464844 888.429688 624.398438 874.007812 618.289062 L 830.886719 599.667969 L 787.996094 580.503906 C 773.738281 574.023438 759.503906 567.496094 745.378906 560.722656 " fill-opacity="1" fill-rule="nonzero"/><path fill="#38336c" d="M 695.613281 511.1875 C 702.917969 525.753906 709.96875 540.453125 716.976562 555.164062 L 737.726562 599.414062 L 757.941406 643.914062 C 764.578125 658.796875 771.179688 673.6875 777.523438 688.707031 C 770.214844 674.140625 763.164062 659.441406 756.160156 644.742188 L 735.410156 600.480469 L 715.203125 555.972656 C 708.5625 541.097656 701.960938 526.199219 695.613281 511.1875 " fill-opacity="1" fill-rule="nonzero"/><path fill="#38336c" d="M 695.457031 440.976562 C 689.878906 456.25 684.039062 471.410156 678.160156 486.5625 L 660.234375 531.890625 L 641.761719 577.003906 C 635.503906 592.003906 629.210938 606.984375 622.652344 621.859375 C 628.230469 606.59375 634.066406 591.421875 639.941406 576.277344 L 657.875 530.945312 L 676.347656 485.835938 C 682.605469 470.832031 688.898438 455.851562 695.457031 440.976562 " fill-opacity="1" fill-rule="nonzero"/><path fill="#38336c" d="M 745 391.21875 C 730.328125 396.0625 715.578125 400.640625 700.8125 405.171875 L 656.441406 418.46875 L 611.902344 431.195312 C 597.023438 435.335938 582.136719 439.441406 567.167969 443.269531 C 581.839844 438.421875 596.589844 433.847656 611.347656 429.316406 L 655.722656 416.019531 L 700.269531 403.292969 C 715.140625 399.152344 730.035156 395.054688 745 391.21875 " fill-opacity="1" fill-rule="nonzero"/><path fill="#f8efe3" d="M 982.667969 138.042969 L 559.421875 138.042969 C 531.816406 138.042969 509.230469 115.460938 509.230469 87.855469 L 509.230469 50.53125 C 509.230469 22.929688 531.816406 0.34375 559.421875 0.34375 L 982.667969 0.34375 C 1010.269531 0.34375 1032.863281 22.929688 1032.863281 50.53125 L 1032.863281 87.855469 C 1032.863281 115.460938 1010.269531 138.042969 982.667969 138.042969 " fill-opacity="1" fill-rule="nonzero"/><path fill="#b8c4c3" d="M 337.816406 108.796875 L 471.035156 108.796875 C 480.152344 108.796875 487.605469 101.347656 487.605469 92.226562 L 487.605469 40.835938 C 487.605469 31.714844 480.152344 24.265625 471.035156 24.265625 L 337.816406 24.265625 C 328.703125 24.265625 321.246094 31.714844 321.246094 40.835938 L 321.246094 92.226562 C 321.246094 101.347656 328.703125 108.796875 337.816406 108.796875 " fill-opacity="1" fill-rule="nonzero"/><path fill="#9ea7a7" d="M 487.605469 54.878906 L 487.605469 85.566406 C 487.605469 98.34375 476.296875 108.796875 462.476562 108.796875 L 346.375 108.796875 C 332.558594 108.796875 321.246094 98.34375 321.246094 85.566406 L 321.246094 54.878906 L 487.605469 54.878906 " fill-opacity="1" fill-rule="nonzero"/><path fill="#9ea7a7" d="M 344.148438 24.371094 L 337.394531 24.371094 L 337.394531 58.964844 L 344.148438 58.964844 L 344.148438 24.371094 " fill-opacity="1" fill-rule="nonzero"/><path fill="#9ea7a7" d="M 365.253906 24.371094 L 358.503906 24.371094 L 358.503906 58.964844 L 365.253906 58.964844 L 365.253906 24.371094 " fill-opacity="1" fill-rule="nonzero"/><path fill="#9ea7a7" d="M 386.363281 24.371094 L 379.609375 24.371094 L 379.609375 58.964844 L 386.363281 58.964844 L 386.363281 24.371094 " fill-opacity="1" fill-rule="nonzero"/><path fill="#9ea7a7" d="M 407.46875 24.371094 L 400.714844 24.371094 L 400.714844 58.964844 L 407.46875 58.964844 L 407.46875 24.371094 " fill-opacity="1" fill-rule="nonzero"/><path fill="#9ea7a7" d="M 428.574219 24.371094 L 421.820312 24.371094 L 421.820312 58.964844 L 428.574219 58.964844 L 428.574219 24.371094 " fill-opacity="1" fill-rule="nonzero"/><path fill="#9ea7a7" d="M 449.679688 24.371094 L 442.925781 24.371094 L 442.925781 58.964844 L 449.679688 58.964844 L 449.679688 24.371094 " fill-opacity="1" fill-rule="nonzero"/><path fill="#9ea7a7" d="M 470.785156 24.371094 L 464.035156 24.371094 L 464.035156 58.964844 L 470.785156 58.964844 L 470.785156 24.371094 " fill-opacity="1" fill-rule="nonzero"/><path fill="#d1d3dc" d="M 329.257812 32.882812 C 328.511719 32.859375 327.753906 33.300781 327.386719 33.949219 C 326.085938 36.25 326.453125 38.917969 326.769531 41.433594 C 326.914062 42.625 327.105469 43.820312 327.199219 45.015625 C 327.304688 46.300781 327 47.605469 327.457031 48.832031 C 327.613281 49.253906 328.078125 49.652344 328.5625 49.460938 C 331.800781 48.179688 331.175781 43.390625 331.015625 40.609375 C 330.894531 38.488281 332.699219 32.980469 329.257812 32.882812 " fill-opacity="1" fill-rule="nonzero"/><path fill="#d1d3dc" d="M 352.4375 28.671875 C 352.007812 27.914062 350.792969 27.671875 350.1875 28.378906 C 348.132812 30.761719 348.144531 33.710938 347.972656 36.769531 C 347.75 40.667969 347.703125 44.625 348.03125 48.515625 C 348.113281 49.417969 349.226562 49.53125 349.558594 48.71875 C 351.050781 45.109375 352.125 41.28125 352.796875 37.421875 C 353.320312 34.4375 354.007812 31.394531 352.4375 28.671875 " fill-opacity="1" fill-rule="nonzero"/><path fill="#d1d3dc" d="M 374.503906 31.03125 C 373.859375 29.5625 371.351562 29.609375 370.683594 31.03125 C 369.222656 34.160156 369.355469 37.421875 369.152344 40.804688 C 368.9375 44.414062 368.9375 47.601562 369.425781 51.175781 C 369.59375 52.386719 371.410156 52.464844 371.941406 51.507812 C 375.078125 45.863281 377.195312 37.199219 374.503906 31.03125 " fill-opacity="1" fill-rule="nonzero"/><path fill="#d1d3dc" d="M 396.410156 32.207031 C 395.828125 31.460938 394.378906 31.5 393.789062 32.207031 C 392.058594 34.265625 391.746094 36.519531 391.40625 39.121094 C 391.226562 40.488281 391.050781 41.777344 391.078125 43.160156 C 391.105469 44.683594 391.539062 46.082031 391.59375 47.601562 C 391.644531 48.921875 393.210938 49.203125 393.9375 48.230469 C 394.882812 46.960938 395.914062 46.089844 396.613281 44.652344 C 397.359375 43.105469 397.699219 41.707031 397.949219 40.007812 C 398.375 37.09375 398.289062 34.582031 396.410156 32.207031 " fill-opacity="1" fill-rule="nonzero"/><path fill="#d1d3dc" d="M 417.320312 26.304688 C 416.972656 25.140625 415.320312 24.867188 414.699219 25.957031 C 410.847656 32.707031 411.980469 41.105469 412.488281 48.523438 C 412.558594 49.582031 414.042969 49.847656 414.367188 48.777344 C 416.523438 41.707031 419.539062 33.714844 417.320312 26.304688 " fill-opacity="1" fill-rule="nonzero"/><path fill="#d1d3dc" d="M 437.363281 29.148438 C 437.074219 28.332031 435.976562 28.117188 435.507812 28.898438 C 432.097656 34.550781 431.5 43.003906 432.046875 49.441406 C 432.152344 50.691406 433.933594 51.449219 434.609375 50.132812 C 437.707031 44.132812 439.71875 35.675781 437.363281 29.148438 " fill-opacity="1" fill-rule="nonzero"/><path fill="#d1d3dc" d="M 459.5 33.851562 C 459 32.519531 456.996094 31.5 455.902344 32.90625 C 452.683594 37.011719 453.234375 43.585938 454.191406 48.382812 C 454.382812 49.351562 455.808594 49.472656 456.265625 48.652344 C 458.46875 44.695312 461.203125 38.4375 459.5 33.851562 " fill-opacity="1" fill-rule="nonzero"/><path fill="#d1d3dc" d="M 480.25 33.46875 C 479.671875 32.386719 478.175781 32.292969 477.339844 33.09375 C 473.15625 37.078125 474.167969 44.757812 474.804688 49.890625 C 474.949219 51.082031 476.714844 51.972656 477.363281 50.589844 C 479.652344 45.738281 483.074219 38.714844 480.25 33.46875 " fill-opacity="1" fill-rule="nonzero"/><path fill="#9aa4a4" d="M 1239.273438 84.875 L 1101.910156 84.875 C 1092.578125 84.875 1084.929688 77.238281 1084.929688 67.898438 L 1084.929688 17.320312 C 1084.929688 7.980469 1092.578125 0.34375 1101.910156 0.34375 L 1239.273438 0.34375 C 1248.613281 0.34375 1256.253906 7.980469 1256.253906 17.320312 L 1256.253906 67.898438 C 1256.253906 77.238281 1248.613281 84.875 1239.273438 84.875 " fill-opacity="1" fill-rule="nonzero"/><path fill="#b8c4c3" d="M 245.542969 108.796875 L 278.4375 108.796875 C 287.015625 108.796875 294.035156 101.78125 294.035156 93.203125 L 294.035156 39.863281 C 294.035156 31.28125 287.015625 24.265625 278.4375 24.265625 L 245.542969 24.265625 C 236.964844 24.265625 229.945312 31.28125 229.945312 39.863281 L 229.945312 93.203125 C 229.945312 101.78125 236.964844 108.796875 245.542969 108.796875 " fill-opacity="1" fill-rule="nonzero"/><path fill="#b8c4c3" d="M 1254.390625 106.972656 L 1079.808594 106.972656 C 1063.410156 106.972656 1049.984375 93.546875 1049.984375 77.152344 L 1049.984375 52.253906 C 1049.984375 35.851562 1063.410156 22.4375 1079.808594 22.4375 L 1254.390625 22.4375 C 1270.785156 22.4375 1284.203125 35.851562 1284.203125 52.253906 L 1284.203125 77.152344 C 1284.203125 93.546875 1270.785156 106.972656 1254.390625 106.972656 " fill-opacity="1" fill-rule="nonzero"/><path fill="#9ea7a7" d="M 294.035156 54.878906 L 294.035156 94.375 C 294.035156 102.304688 287.015625 108.796875 278.4375 108.796875 L 245.542969 108.796875 C 236.964844 108.796875 229.945312 102.304688 229.945312 94.375 L 229.945312 54.878906 L 294.035156 54.878906 " fill-opacity="1" fill-rule="nonzero"/><path fill="#9ea7a7" d="M 1050.101562 48.644531 C 1050.046875 49.355469 1049.992188 50.066406 1049.992188 50.789062 L 1049.992188 78.609375 C 1049.992188 94.207031 1064.101562 106.972656 1081.347656 106.972656 L 1252.851562 106.972656 C 1270.09375 106.972656 1284.203125 94.207031 1284.203125 78.609375 L 1284.203125 50.789062 C 1284.203125 50.066406 1284.148438 49.355469 1284.085938 48.644531 L 1050.101562 48.644531 " fill-opacity="1" fill-rule="nonzero"/><g clip-path="url(#44bbe4ef05)"><path fill="#f8efe3" d="M 1324.292969 863.667969 L 211.882812 863.667969 C 178.933594 863.667969 151.976562 836.710938 151.976562 803.765625 L 151.976562 124.605469 C 151.976562 91.65625 178.933594 64.699219 211.882812 64.699219 L 1324.292969 64.699219 C 1357.25 64.699219 1384.199219 91.65625 1384.199219 124.605469 L 1384.199219 803.765625 C 1384.199219 836.710938 1357.25 863.667969 1324.292969 863.667969 " fill-opacity="1" fill-rule="nonzero"/></g><g clip-path="url(#b8a0200fd9)"><path fill="#8164b9" d="M 1384.199219 768.234375 L 151.976562 768.234375 L 151.976562 244.605469 L 1384.199219 244.605469 L 1384.199219 768.234375 " fill-opacity="1" fill-rule="nonzero"/></g><path fill="#a675c1" d="M 1329.65625 768.234375 L 206.519531 768.234375 L 206.519531 244.609375 L 1329.65625 244.609375 L 1329.65625 768.234375 " fill-opacity="1" fill-rule="nonzero"/><path fill="#d1d3dc" d="M 1264.792969 34.632812 C 1254.394531 28.679688 1239.101562 30.898438 1227.117188 30.8125 C 1210.679688 30.695312 1194.203125 31.097656 1177.769531 31.273438 C 1145.636719 31.625 1113.695312 32.683594 1081.820312 36.101562 C 1080.367188 36.261719 1080.371094 37.96875 1081.820312 38.136719 C 1113.6875 41.789062 1145.613281 43.085938 1177.769531 43.667969 C 1193.296875 43.945312 1208.839844 44.4375 1224.378906 44.507812 C 1237.171875 44.566406 1253.640625 47.199219 1264.792969 40.929688 C 1267.417969 39.449219 1267.378906 36.109375 1264.792969 34.632812 " fill-opacity="1" fill-rule="nonzero"/><path fill="#d1d3dc" d="M 245.785156 31.476562 C 253.089844 30.347656 260.382812 30.574219 267.753906 30.601562 C 274.09375 30.625 281.164062 30.355469 286.414062 34.398438 C 287.621094 35.324219 288.316406 37.226562 286.933594 38.4375 C 282.351562 42.4375 276.542969 43 270.648438 43.449219 C 263.015625 44.035156 255.136719 44.894531 247.5 44.15625 C 240.898438 43.515625 238.011719 32.679688 245.785156 31.476562 " fill-opacity="1" fill-rule="nonzero"/><path fill="#fffef5" d="M 1360.152344 131.066406 C 1360.394531 122.351562 1360.554688 113.324219 1355.582031 105.308594 C 1341.914062 83.242188 1299.523438 80.128906 1264.964844 80.339844 C 1012.722656 81.90625 760.488281 83.472656 508.25 85.042969 C 444.386719 85.433594 380.519531 85.828125 316.679688 87.007812 C 277.867188 87.71875 238.523438 88.789062 201.457031 96.828125 C 196.078125 97.992188 190.535156 99.40625 186.714844 102.289062 C 182.632812 105.367188 181.144531 109.667969 179.902344 113.773438 C 171.339844 142.101562 167.511719 171.109375 168.527344 200.042969 C 168.746094 206.273438 169.53125 213.085938 175.742188 217.578125 C 182.859375 222.722656 194.390625 222.957031 204.65625 222.84375 C 234.863281 222.511719 265.070312 222.183594 295.277344 221.867188 C 625.1875 218.503906 955.160156 217.886719 1285.089844 220.027344 C 1309.445312 220.191406 1346.34375 226.308594 1355.878906 205.792969 C 1366.136719 183.742188 1359.519531 154.03125 1360.152344 131.066406 " fill-opacity="1" fill-rule="nonzero"/><path fill="#fffef5" d="M 1012.242188 59.289062 C 1012.328125 51.578125 1012.394531 43.59375 1010.375 36.515625 C 1004.796875 17 987.519531 14.25 973.425781 14.4375 C 870.597656 15.820312 767.757812 17.203125 664.929688 18.585938 C 638.890625 18.929688 612.855469 19.285156 586.828125 20.328125 C 571.003906 20.953125 554.960938 21.898438 539.851562 29.011719 C 537.660156 30.039062 535.402344 31.289062 533.84375 33.835938 C 532.179688 36.5625 531.570312 40.359375 531.066406 43.992188 C 527.574219 69.039062 526.015625 94.691406 526.425781 120.277344 C 526.515625 125.789062 526.839844 131.816406 529.367188 135.785156 C 532.269531 140.332031 536.972656 140.542969 541.160156 140.4375 C 553.472656 140.144531 565.785156 139.851562 578.101562 139.582031 C 712.601562 136.597656 847.125 136.058594 981.636719 137.953125 C 991.566406 138.09375 1006.609375 143.507812 1010.496094 125.367188 C 1014.675781 105.871094 1011.976562 79.589844 1012.242188 59.289062 " fill-opacity="1" fill-rule="nonzero"/><path fill="#fffef5" d="M 1360.152344 829.234375 C 1360.394531 833.292969 1360.554688 837.492188 1355.582031 841.222656 C 1341.914062 851.492188 1299.523438 852.941406 1264.964844 852.84375 C 1012.722656 852.113281 760.488281 851.382812 508.25 850.65625 C 444.386719 850.472656 380.519531 850.285156 316.679688 849.738281 C 277.867188 849.410156 238.523438 848.914062 201.457031 845.167969 C 196.078125 844.628906 190.535156 843.964844 186.714844 842.628906 C 182.632812 841.191406 181.144531 839.195312 179.902344 837.28125 C 171.339844 824.097656 167.511719 810.597656 168.527344 797.128906 C 168.746094 794.238281 169.53125 791.058594 175.742188 788.964844 C 182.859375 786.574219 194.390625 786.460938 204.65625 786.515625 C 234.863281 786.671875 265.070312 786.824219 295.277344 786.964844 C 625.1875 788.539062 955.160156 788.824219 1285.089844 787.828125 C 1309.445312 787.757812 1346.34375 784.910156 1355.878906 794.453125 C 1366.136719 804.714844 1359.519531 818.542969 1360.152344 829.234375 " fill-opacity="1" fill-rule="nonzero"/><path fill="#c2aea6" d="M 415.015625 216.320312 C 398.882812 216.320312 385.808594 203.242188 385.808594 187.109375 C 385.808594 170.988281 398.882812 157.910156 415.015625 157.910156 C 431.148438 157.910156 444.222656 170.988281 444.222656 187.109375 C 444.222656 203.242188 431.148438 216.320312 415.015625 216.320312 " fill-opacity="1" fill-rule="nonzero"/><path fill="#a59d95" d="M 415.015625 203.152344 C 406.160156 203.152344 398.976562 195.972656 398.976562 187.109375 C 398.976562 178.253906 406.160156 171.078125 415.015625 171.078125 C 423.875 171.078125 431.050781 178.253906 431.050781 187.109375 C 431.050781 195.972656 423.875 203.152344 415.015625 203.152344 " fill-opacity="1" fill-rule="nonzero"/><path fill="#8164b9" d="M 1298.101562 329.398438 C 1298.101562 352.507812 1279.363281 371.242188 1256.25 371.242188 C 1233.132812 371.242188 1214.394531 352.507812 1214.394531 329.398438 C 1214.394531 306.285156 1233.132812 287.546875 1256.25 287.546875 C 1279.363281 287.546875 1298.101562 306.285156 1298.101562 329.398438 " fill-opacity="1" fill-rule="nonzero"/><path fill="#f8efe3" d="M 1279.230469 329.398438 C 1279.230469 342.089844 1268.941406 352.375 1256.246094 352.375 C 1243.554688 352.375 1233.261719 342.089844 1233.261719 329.398438 C 1233.261719 316.707031 1243.554688 306.414062 1256.246094 306.414062 C 1268.941406 306.414062 1279.230469 316.707031 1279.230469 329.398438 " fill-opacity="1" fill-rule="nonzero"/><path fill="#53488a" d="M 1279.230469 420.289062 C 1279.230469 432.980469 1268.941406 443.269531 1256.246094 443.269531 C 1243.554688 443.269531 1233.261719 432.980469 1233.261719 420.289062 C 1233.261719 407.601562 1243.554688 397.308594 1256.246094 397.308594 C 1268.941406 397.308594 1279.230469 407.601562 1279.230469 420.289062 " fill-opacity="1" fill-rule="nonzero"/><path fill="#c2aea6" d="M 415.015625 145.28125 C 398.882812 145.28125 385.808594 132.199219 385.808594 116.078125 C 385.808594 99.945312 398.882812 86.867188 415.015625 86.867188 C 431.148438 86.867188 444.222656 99.945312 444.222656 116.078125 C 444.222656 132.199219 431.148438 145.28125 415.015625 145.28125 " fill-opacity="1" fill-rule="nonzero"/><path fill="#a59d95" d="M 415.015625 132.113281 C 406.160156 132.113281 398.976562 124.933594 398.976562 116.078125 C 398.976562 107.214844 406.160156 100.035156 415.015625 100.035156 C 423.875 100.035156 431.050781 107.214844 431.050781 116.078125 C 431.050781 124.933594 423.875 132.113281 415.015625 132.113281 " fill-opacity="1" fill-rule="nonzero"/><path fill="#addcf6" d="M 334.277344 203.65625 L 235.152344 203.65625 C 221.773438 203.65625 210.929688 192.816406 210.929688 179.445312 L 210.929688 126.238281 C 210.929688 112.867188 221.773438 102.019531 235.152344 102.019531 L 334.277344 102.019531 C 347.65625 102.019531 358.503906 112.867188 358.503906 126.238281 L 358.503906 179.445312 C 358.503906 192.816406 347.65625 203.65625 334.277344 203.65625 " fill-opacity="1" fill-rule="nonzero"/><path fill="#78b9d8" d="M 355.605469 190.050781 L 256.476562 190.050781 C 243.097656 190.050781 232.253906 179.210938 232.253906 165.832031 L 232.253906 112.636719 C 232.253906 108.832031 233.15625 105.246094 234.71875 102.042969 C 221.542969 102.277344 210.929688 113.011719 210.929688 126.238281 L 210.929688 179.445312 C 210.929688 192.816406 221.773438 203.664062 235.152344 203.664062 L 334.277344 203.664062 C 343.855469 203.664062 352.105469 198.09375 356.039062 190.027344 L 355.605469 190.050781 " fill-opacity="1" fill-rule="nonzero"/><path fill="#f3e1c6" d="M 1124.128906 475.890625 C 1124.128906 665.753906 970.191406 819.675781 780.296875 819.675781 C 590.40625 819.675781 436.464844 665.753906 436.464844 475.890625 C 436.464844 286.023438 590.40625 132.113281 780.296875 132.113281 C 970.191406 132.113281 1124.128906 286.023438 1124.128906 475.890625 " fill-opacity="1" fill-rule="nonzero"/><path fill="#c2aea6" d="M 1087.597656 475.890625 C 1087.597656 645.589844 950.011719 783.152344 780.296875 783.152344 C 610.578125 783.152344 472.996094 645.589844 472.996094 475.890625 C 472.996094 306.199219 610.578125 168.636719 780.296875 168.636719 C 950.011719 168.636719 1087.597656 306.199219 1087.597656 475.890625 " fill-opacity="1" fill-rule="nonzero"/><path fill="#8164b9" d="M 1042.183594 475.890625 C 1042.183594 620.503906 924.933594 737.742188 780.296875 737.742188 C 635.660156 737.742188 518.414062 620.503906 518.414062 475.890625 C 518.414062 331.273438 635.660156 214.042969 780.296875 214.042969 C 924.933594 214.042969 1042.183594 331.273438 1042.183594 475.890625 " fill-opacity="1" fill-rule="nonzero"/><path fill="#53488a" d="M 990.367188 475.890625 C 990.367188 593.429688 895.074219 688.707031 777.523438 688.707031 C 659.972656 688.707031 564.683594 593.429688 564.683594 475.890625 C 564.683594 358.359375 659.972656 263.078125 777.523438 263.078125 C 895.074219 263.078125 990.367188 358.359375 990.367188 475.890625 " fill-opacity="1" fill-rule="nonzero"/><path fill="#ead6d3" d="M 1284.03125 201.023438 L 1117.160156 201.023438 C 1100.828125 201.023438 1087.597656 187.785156 1087.597656 171.464844 L 1087.597656 131.722656 C 1087.597656 115.40625 1100.828125 102.164062 1117.160156 102.164062 L 1284.03125 102.164062 C 1300.359375 102.164062 1313.589844 115.40625 1313.589844 131.722656 L 1313.589844 171.464844 C 1313.589844 187.785156 1300.359375 201.023438 1284.03125 201.023438 " fill-opacity="1" fill-rule="nonzero"/><path fill="#c2aea6" d="M 1130.195312 201.015625 L 1120.023438 201.015625 C 1117.21875 201.015625 1114.925781 198.722656 1114.925781 195.917969 L 1114.925781 107.269531 C 1114.925781 104.464844 1117.21875 102.164062 1120.023438 102.164062 L 1130.195312 102.164062 C 1133 102.164062 1135.296875 104.464844 1135.296875 107.269531 L 1135.296875 195.917969 C 1135.296875 198.722656 1133 201.015625 1130.195312 201.015625 " fill-opacity="1" fill-rule="nonzero"/><path fill="#c2aea6" d="M 1168.886719 201.015625 L 1158.71875 201.015625 C 1155.914062 201.015625 1153.613281 198.722656 1153.613281 195.917969 L 1153.613281 107.269531 C 1153.613281 104.464844 1155.914062 102.164062 1158.71875 102.164062 L 1168.886719 102.164062 C 1171.691406 102.164062 1173.984375 104.464844 1173.984375 107.269531 L 1173.984375 195.917969 C 1173.984375 198.722656 1171.691406 201.015625 1168.886719 201.015625 " fill-opacity="1" fill-rule="nonzero"/><path fill="#c2aea6" d="M 1207.574219 201.019531 L 1197.398438 201.019531 C 1194.597656 201.019531 1192.304688 198.726562 1192.304688 195.921875 L 1192.304688 107.273438 C 1192.304688 104.464844 1194.597656 102.171875 1197.398438 102.171875 L 1207.574219 102.171875 C 1210.378906 102.171875 1212.679688 104.464844 1212.679688 107.273438 L 1212.679688 195.921875 C 1212.679688 198.726562 1210.378906 201.019531 1207.574219 201.019531 " fill-opacity="1" fill-rule="nonzero"/><path fill="#c2aea6" d="M 1246.265625 201.027344 L 1236.097656 201.027344 C 1233.292969 201.027344 1230.992188 198.730469 1230.992188 195.917969 L 1230.992188 107.269531 C 1230.992188 104.464844 1233.292969 102.167969 1236.097656 102.167969 L 1246.265625 102.167969 C 1249.070312 102.167969 1251.363281 104.464844 1251.363281 107.269531 L 1251.363281 195.917969 C 1251.363281 198.730469 1249.070312 201.027344 1246.265625 201.027344 " fill-opacity="1" fill-rule="nonzero"/><path fill="#c2aea6" d="M 1284.957031 201.015625 L 1274.796875 201.015625 C 1271.980469 201.015625 1269.6875 198.726562 1269.6875 195.917969 L 1269.6875 107.265625 C 1269.6875 104.464844 1271.980469 102.167969 1274.796875 102.167969 L 1284.957031 102.167969 C 1287.765625 102.167969 1290.0625 104.464844 1290.0625 107.265625 L 1290.0625 195.917969 C 1290.0625 198.726562 1287.765625 201.015625 1284.957031 201.015625 " fill-opacity="1" fill-rule="nonzero"/><path fill="#38336c" d="M 815.597656 560.566406 L 745.378906 560.722656 L 695.613281 511.1875 L 695.457031 440.976562 L 745 391.21875 L 815.21875 391.066406 L 864.980469 440.597656 L 865.136719 510.804688 L 815.597656 560.566406 " fill-opacity="1" fill-rule="nonzero"/><path fill="#38336c" d="M 815.21875 391.066406 C 802.714844 383.328125 790.378906 375.351562 778.058594 367.347656 L 741.273438 343.058594 L 704.816406 318.292969 C 692.722656 309.941406 680.652344 301.5625 668.742188 292.949219 C 681.242188 300.679688 693.585938 308.65625 705.90625 316.664062 L 742.6875 340.949219 L 779.140625 365.726562 C 791.238281 374.066406 803.304688 382.449219 815.21875 391.066406 " fill-opacity="1" fill-rule="nonzero"/><path fill="#38336c" d="M 864.980469 440.597656 C 861.0625 426.355469 857.417969 412.042969 853.816406 397.730469 L 843.3125 354.695312 L 833.382812 311.535156 C 830.179688 297.121094 827.015625 282.695312 824.121094 268.210938 C 828.042969 282.453125 831.691406 296.757812 835.292969 311.078125 L 845.792969 354.113281 L 855.71875 397.28125 C 858.921875 411.6875 862.085938 426.113281 864.980469 440.597656 " fill-opacity="1" fill-rule="nonzero"/><path fill="#38336c" d="M 865.136719 510.804688 C 870.679688 495.996094 876.472656 481.285156 882.308594 466.597656 L 900.105469 422.648438 L 918.445312 378.917969 C 924.664062 364.378906 930.910156 349.863281 937.429688 335.457031 C 931.898438 350.261719 926.101562 364.972656 920.265625 379.667969 L 902.460938 423.617188 L 884.113281 467.34375 C 877.902344 481.875 871.648438 496.394531 865.136719 510.804688 " fill-opacity="1" fill-rule="nonzero"/><path fill="#38336c" d="M 815.597656 560.566406 C 829.925781 554.191406 844.359375 548.078125 858.800781 542.007812 L 902.269531 524.078125 L 945.945312 506.703125 C 960.554688 501.011719 975.167969 495.359375 989.894531 489.964844 C 975.566406 496.335938 961.132812 502.449219 946.683594 508.519531 L 903.222656 526.441406 L 859.539062 543.820312 C 844.9375 549.515625 830.316406 555.171875 815.597656 560.566406 " fill-opacity="1" fill-rule="nonzero"/><path fill="#38336c" d="M 745.378906 560.722656 C 759.925781 566.535156 774.359375 572.609375 788.777344 578.71875 L 831.910156 597.332031 L 874.800781 616.492188 C 889.050781 622.976562 903.289062 629.496094 917.417969 636.277344 C 902.871094 630.464844 888.429688 624.398438 874.007812 618.289062 L 830.886719 599.667969 L 787.996094 580.503906 C 773.738281 574.023438 759.503906 567.496094 745.378906 560.722656 " fill-opacity="1" fill-rule="nonzero"/><path fill="#38336c" d="M 695.613281 511.1875 C 702.917969 525.753906 709.96875 540.453125 716.976562 555.164062 L 737.726562 599.414062 L 757.941406 643.914062 C 764.578125 658.796875 771.179688 673.6875 777.523438 688.707031 C 770.214844 674.140625 763.164062 659.441406 756.160156 644.742188 L 735.410156 600.480469 L 715.203125 555.972656 C 708.5625 541.097656 701.960938 526.199219 695.613281 511.1875 " fill-opacity="1" fill-rule="nonzero"/><path fill="#38336c" d="M 695.457031 440.976562 C 689.878906 456.25 684.039062 471.410156 678.160156 486.5625 L 660.234375 531.890625 L 641.761719 577.003906 C 635.503906 592.003906 629.210938 606.984375 622.652344 621.859375 C 628.230469 606.59375 634.066406 591.421875 639.941406 576.277344 L 657.875 530.945312 L 676.347656 485.835938 C 682.605469 470.832031 688.898438 455.851562 695.457031 440.976562 " fill-opacity="1" fill-rule="nonzero"/><path fill="#38336c" d="M 745 391.21875 C 730.328125 396.0625 715.578125 400.640625 700.8125 405.171875 L 656.441406 418.46875 L 611.902344 431.195312 C 597.023438 435.335938 582.136719 439.441406 567.167969 443.269531 C 581.839844 438.421875 596.589844 433.847656 611.347656 429.316406 L 655.722656 416.019531 L 700.269531 403.292969 C 715.140625 399.152344 730.035156 395.054688 745 391.21875 " fill-opacity="1" fill-rule="nonzero"/></svg>